<?xml version="1.0" encoding="UTF-8"?>
<!DOCTYPE svg PUBLIC "-//W3C//DTD SVG 1.1//EN" "http://www.w3.org/Graphics/SVG/1.1/DTD/svg11.dtd">
<svg xmlns="http://www.w3.org/2000/svg" version="1.1" width="1200px" height="452px" style="shape-rendering:geometricPrecision; text-rendering:geometricPrecision; image-rendering:optimizeQuality; fill-rule:evenodd; clip-rule:evenodd" xmlns:xlink="http://www.w3.org/1999/xlink">
<g><path style="opacity:0.988" fill="#e7c578" d="M 586.5,0.5 C 590.138,-0.263437 591.638,1.0699 591,4.5C 587.331,6.00926 585.831,4.67593 586.5,0.5 Z"/></g>
<g><path style="opacity:0.98" fill="#eacb6c" d="M 607.5,-0.5 C 608.167,-0.5 608.833,-0.5 609.5,-0.5C 612.332,2.19838 611.832,4.19838 608,5.5C 604.897,3.88796 604.73,1.88796 607.5,-0.5 Z"/></g>
<g><path style="opacity:0.977" fill="#e9c57a" d="M 568.5,2.5 C 570.484,2.484 571.484,3.484 571.5,5.5C 571.566,7.26638 570.732,8.26638 569,8.5C 565.911,6.79562 565.745,4.79562 568.5,2.5 Z"/></g>
<g><path style="opacity:0.992" fill="#e6c26c" d="M 626.5,2.5 C 630.35,2.70072 631.35,4.53406 629.5,8C 625.537,8.11766 624.537,6.28433 626.5,2.5 Z"/></g>
<g><path style="opacity:0.997" fill="#e9ca80" d="M 548.5,8.5 C 552.138,7.73656 553.638,9.0699 553,12.5C 548.421,14.4183 546.921,13.085 548.5,8.5 Z"/></g>
<g><path style="opacity:0.978" fill="#e4bf6a" d="M 644.5,8.5 C 648.676,7.83068 650.009,9.33068 648.5,13C 647.207,13.49 645.873,13.6567 644.5,13.5C 644.5,11.8333 644.5,10.1667 644.5,8.5 Z"/></g>
<g><path style="opacity:0.995" fill="#e5c167" d="M 662.5,16.5 C 666.676,15.8307 668.009,17.3307 666.5,21C 665.207,21.49 663.873,21.6567 662.5,21.5C 662.5,19.8333 662.5,18.1667 662.5,16.5 Z"/></g>
<g><path style="opacity:0.986" fill="#eacc87" d="M 530.5,17.5 C 532.167,17.5 533.833,17.5 535.5,17.5C 536.169,21.6759 534.669,23.0093 531,21.5C 530.51,20.2068 530.343,18.8734 530.5,17.5 Z"/></g>
<g><path style="opacity:0.993" fill="#e5bd69" d="M 679.5,27.5 C 680.833,27.5 682.167,27.5 683.5,27.5C 683.5,29.1667 683.5,30.8333 683.5,32.5C 679.065,33.0776 677.732,31.4109 679.5,27.5 Z"/></g>
<g><path style="opacity:0.993" fill="#e8cb83" d="M 514.5,27.5 C 518.071,27.4077 519.238,29.0743 518,32.5C 515.842,33.677 514.342,33.0103 513.5,30.5C 513.685,29.4163 514.018,28.4163 514.5,27.5 Z"/></g>
<g><path style="opacity:0.992" fill="#e4bc69" d="M 693.5,40.5 C 697.676,39.8307 699.009,41.3307 697.5,45C 696.207,45.49 694.873,45.6567 693.5,45.5C 693.5,43.8333 693.5,42.1667 693.5,40.5 Z"/></g>
<g><path style="opacity:0.959" fill="#e9cc82" d="M 499.5,41.5 C 505.024,41.5348 505.691,43.2015 501.5,46.5C 498.651,45.5846 497.985,43.918 499.5,41.5 Z"/></g>
<g><path style="opacity:0.947" fill="#e0bd67" d="M 706.5,55.5 C 710.138,54.7366 711.638,56.0699 711,59.5C 706.757,60.9808 705.257,59.6475 706.5,55.5 Z"/></g>
<g><path style="opacity:0.957" fill="#e9c882" d="M 487.5,55.5 C 491.013,56.0282 492.013,57.8615 490.5,61C 486.537,61.1177 485.537,59.2843 487.5,55.5 Z"/></g>
<g><path style="opacity:0.985" fill="#eac77f" d="M 476.5,72.5 C 479.729,72.1647 481.229,73.4981 481,76.5C 476.421,78.4183 474.921,77.085 476.5,72.5 Z"/></g>
<g><path style="opacity:0.952" fill="#dfbb67" d="M 716.5,72.5 C 718.167,72.5 719.833,72.5 721.5,72.5C 722.169,76.6759 720.669,78.0093 717,76.5C 716.51,75.2068 716.343,73.8734 716.5,72.5 Z"/></g>
<g><path style="opacity:0.957" fill="#e0bb66" d="M 724.5,90.5 C 726.167,90.5 727.833,90.5 729.5,90.5C 730.169,94.6759 728.669,96.0093 725,94.5C 724.51,93.2068 724.343,91.8734 724.5,90.5 Z"/></g>
<g><path style="opacity:0.998" fill="#eccd74" d="M 469.5,90.5 C 474.42,91.7171 474.753,93.7171 470.5,96.5C 467.025,94.9158 466.692,92.9158 469.5,90.5 Z"/></g>
<g><path style="opacity:0.992" fill="#dcb764" d="M 667.5,135.5 C 668.11,134.609 668.443,133.609 668.5,132.5C 674.778,136.311 681.111,140.144 687.5,144C 691.624,149.077 695.124,154.577 698,160.5C 705.833,150 713.667,139.5 721.5,129C 727.091,126.803 732.758,124.803 738.5,123C 746.803,113.696 755.469,104.696 764.5,96C 765.5,95.3333 766.5,95.3333 767.5,96C 774.333,104.167 781.167,112.333 788,120.5C 793.921,130.673 799.587,141.006 805,151.5C 818.145,163.734 831.478,175.734 845,187.5C 849,197.5 853,207.5 857,217.5C 867.089,228.251 876.422,239.584 885,251.5C 885.483,252.448 885.649,253.448 885.5,254.5C 883.278,254.822 881.444,254.155 880,252.5C 871.381,240.879 862.381,229.545 853,218.5C 849.333,209.167 845.667,199.833 842,190.5C 828.667,178.5 815.333,166.5 802,154.5C 796.667,144.5 791.333,134.5 786,124.5C 779.333,116.5 772.667,108.5 766,100.5C 762.7,102.557 762.867,103.557 766.5,103.5C 766.5,104.833 766.5,106.167 766.5,107.5C 762.089,106.66 758.423,107.827 755.5,111C 759.152,111.499 762.818,111.665 766.5,111.5C 766.5,112.833 766.5,114.167 766.5,115.5C 761.156,115.334 755.823,115.501 750.5,116C 749.5,117 748.5,118 747.5,119C 753.825,119.5 760.158,119.666 766.5,119.5C 766.5,120.833 766.5,122.167 766.5,123.5C 758.493,123.334 750.493,123.5 742.5,124C 741.449,125.385 740.116,126.385 738.5,127C 746.188,127.169 753.855,127.669 761.5,128.5C 761.023,129.478 760.357,130.311 759.5,131C 747.833,131.333 736.167,131.667 724.5,132C 723.643,132.689 722.977,133.522 722.5,134.5C 732.167,135.167 741.833,135.833 751.5,136.5C 751.023,137.478 750.357,138.311 749.5,139C 739.167,139.333 728.833,139.667 718.5,140C 717.643,140.689 716.977,141.522 716.5,142.5C 724.833,143.167 733.167,143.833 741.5,144.5C 741.023,145.478 740.357,146.311 739.5,147C 730.5,147.333 721.5,147.667 712.5,148C 711.643,148.689 710.977,149.522 710.5,150.5C 720.483,151.332 730.483,151.832 740.5,152C 743.01,152.376 745.343,153.21 747.5,154.5C 733.833,155.167 720.167,155.833 706.5,156.5C 706.023,157.478 705.357,158.311 704.5,159C 725.5,159.333 746.5,159.667 767.5,160C 770.032,160.619 772.365,161.619 774.5,163C 749.836,163.5 725.169,163.667 700.5,163.5C 700.33,164.822 700.663,165.989 701.5,167C 729.831,167.5 758.165,167.667 786.5,167.5C 786.5,168.833 786.5,170.167 786.5,171.5C 759.165,171.333 731.831,171.5 704.5,172C 705.357,172.689 706.023,173.522 706.5,174.5C 732.158,175.5 757.825,175.833 783.5,175.5C 783.5,176.833 783.5,178.167 783.5,179.5C 759.158,179.167 734.824,179.5 710.5,180.5C 710.977,181.478 711.643,182.311 712.5,183C 735.164,183.5 757.831,183.667 780.5,183.5C 780.67,184.822 780.337,185.989 779.5,187C 758.167,187.333 736.833,187.667 715.5,188C 716.357,188.689 717.023,189.522 717.5,190.5C 737.489,191.5 757.489,191.833 777.5,191.5C 777.67,192.822 777.337,193.989 776.5,195C 758.167,195.333 739.833,195.667 721.5,196C 722.167,197 722.833,198 723.5,199C 741.833,199.333 760.167,199.667 778.5,200C 779.357,200.689 780.023,201.522 780.5,202.5C 762.833,203.167 745.167,203.833 727.5,204.5C 727.977,205.478 728.643,206.311 729.5,207C 748.176,207.167 766.842,207.667 785.5,208.5C 785.833,209.167 786.167,209.833 786.5,210.5C 768.167,211.167 749.833,211.833 731.5,212.5C 731.833,213.167 732.167,213.833 732.5,214.5C 752.158,215.333 771.825,215.833 791.5,216C 792.357,216.689 793.023,217.522 793.5,218.5C 773.845,219.5 754.178,219.833 734.5,219.5C 734.33,220.822 734.663,221.989 735.5,223C 754.83,223.5 774.164,223.667 793.5,223.5C 793.5,224.833 793.5,226.167 793.5,227.5C 774.497,227.333 755.497,227.5 736.5,228C 737.337,229.011 737.67,230.178 737.5,231.5C 756.167,231.5 774.833,231.5 793.5,231.5C 793.5,232.833 793.5,234.167 793.5,235.5C 775.821,235.167 758.154,235.5 740.5,236.5C 741.313,237.814 742.313,238.981 743.5,240C 760.163,240.5 776.83,240.667 793.5,240.5C 793.5,241.5 793.5,242.5 793.5,243.5C 777.497,243.333 761.497,243.5 745.5,244C 746.743,245.154 747.743,246.488 748.5,248C 763.496,248.5 778.496,248.667 793.5,248.5C 793.67,249.822 793.337,250.989 792.5,252C 779.167,252.333 765.833,252.667 752.5,253C 753.861,254.584 754.528,256.418 754.5,258.5C 752.856,258.714 751.356,258.38 750,257.5C 746.054,251.221 741.721,245.221 737,239.5C 732.804,229.245 728.804,218.912 725,208.5C 710.786,189.439 697.953,169.439 686.5,148.5C 679.927,144.391 673.594,140.058 667.5,135.5 Z"/></g>
<g><path style="opacity:0.986" fill="#dfba66" d="M 730.5,109.5 C 731.833,109.5 733.167,109.5 734.5,109.5C 734.99,111.948 734.157,113.615 732,114.5C 729.389,113.5 728.889,111.833 730.5,109.5 Z"/></g>
<g><path style="opacity:0.986" fill="#e7c476" d="M 464.5,109.5 C 469.197,110.874 469.531,112.874 465.5,115.5C 462.025,113.916 461.692,111.916 464.5,109.5 Z"/></g>
<g><path style="opacity:0.988" fill="#e2bd68" d="M 668.5,132.5 C 668.443,133.609 668.11,134.609 667.5,135.5C 660.27,131.616 653.27,127.283 646.5,122.5C 643.001,109.172 639.501,95.8389 636,82.5C 626.483,75.0723 617.149,67.4056 608,59.5C 605.493,60.7627 603.326,62.4294 601.5,64.5C 604.107,65.3184 606.774,65.8184 609.5,66C 610.337,67.0113 610.67,68.1779 610.5,69.5C 606.818,69.3347 603.152,69.5014 599.5,70C 599.043,70.414 598.709,70.914 598.5,71.5C 603.167,72.1667 607.833,72.8333 612.5,73.5C 612.833,74.1667 613.167,74.8333 613.5,75.5C 607.5,76.1667 601.5,76.8333 595.5,77.5C 595.167,78.1667 594.833,78.8333 594.5,79.5C 599.5,80.1667 604.5,80.8333 609.5,81.5C 609.023,82.4776 608.357,83.3109 607.5,84C 602.5,84.3333 597.5,84.6667 592.5,85C 591.833,86 591.167,87 590.5,88C 594.821,88.499 599.154,88.6657 603.5,88.5C 603.67,89.8221 603.337,90.9887 602.5,92C 596.167,92.3333 589.833,92.6667 583.5,93C 580.756,93.8035 578.089,94.8035 575.5,96C 583.188,96.1685 590.855,96.6685 598.5,97.5C 598.291,98.086 597.957,98.586 597.5,99C 587.833,99.3333 578.167,99.6667 568.5,100C 567.643,100.689 566.977,101.522 566.5,102.5C 575.475,103.498 584.475,103.832 593.5,103.5C 593.67,104.822 593.337,105.989 592.5,107C 582.256,107.179 572.09,107.679 562,108.5C 561.626,109.416 561.126,110.25 560.5,111C 569.851,111.168 579.184,111.668 588.5,112.5C 588.023,113.478 587.357,114.311 586.5,115C 576.833,115.333 567.167,115.667 557.5,116C 556.5,117 555.5,118 554.5,119C 563.827,119.5 573.161,119.666 582.5,119.5C 582.67,120.822 582.337,121.989 581.5,123C 571.5,123.333 561.5,123.667 551.5,124C 550.833,125 550.167,126 549.5,127C 564.833,127.333 580.167,127.667 595.5,128C 596.672,128.419 597.672,129.085 598.5,130C 581.167,130.333 563.833,130.667 546.5,131C 545.833,132 545.167,133 544.5,134C 566.833,134.333 589.167,134.667 611.5,135C 613.421,135.36 615.088,136.194 616.5,137.5C 591.507,138.333 566.507,138.833 541.5,139C 540.643,139.689 539.977,140.522 539.5,141.5C 569.5,142.167 599.5,142.833 629.5,143.5C 629.833,144.167 630.167,144.833 630.5,145.5C 598.833,146.167 567.167,146.833 535.5,147.5C 535.023,148.478 534.357,149.311 533.5,150C 566.838,150.167 600.172,150.667 633.5,151.5C 633.833,152.167 634.167,152.833 634.5,153.5C 599.838,154.333 565.171,154.833 530.5,155C 530.043,155.414 529.709,155.914 529.5,156.5C 565.5,157.167 601.5,157.833 637.5,158.5C 637.833,159.167 638.167,159.833 638.5,160.5C 601.171,161.333 563.838,161.833 526.5,162C 525.643,162.689 524.977,163.522 524.5,164.5C 563.496,165.333 602.496,165.833 641.5,166C 642.337,167.011 642.67,168.178 642.5,169.5C 602.165,169.333 561.832,169.5 521.5,170C 520.5,171 519.5,172 518.5,173C 560.833,173.333 603.167,173.667 645.5,174C 646.337,175.011 646.67,176.178 646.5,177.5C 601.832,177.333 557.165,177.5 512.5,178C 511.5,179 510.5,180 509.5,181C 556.504,181.167 603.504,181.667 650.5,182.5C 651.641,183.425 651.641,184.259 650.5,185C 601.5,185.333 552.5,185.667 503.5,186C 502.328,186.419 501.328,187.085 500.5,188C 548.837,188.167 597.17,188.667 645.5,189.5C 645.291,190.086 644.957,190.586 644.5,191C 594.558,192.32 544.558,192.986 494.5,193C 493.833,194 493.167,195 492.5,196C 536.504,196.167 580.504,196.667 624.5,197.5C 623.088,198.806 621.421,199.64 619.5,200C 576.496,200.167 533.496,200.667 490.5,201.5C 490.167,202.167 489.833,202.833 489.5,203.5C 527.5,204.167 565.5,204.833 603.5,205.5C 601.887,206.427 600.221,207.261 598.5,208C 561.162,208.167 523.829,208.667 486.5,209.5C 486.167,210.167 485.833,210.833 485.5,211.5C 521.495,212.333 557.495,212.833 593.5,213C 593.957,213.414 594.291,213.914 594.5,214.5C 557.505,215.333 520.505,215.833 483.5,216C 482.833,217 482.167,218 481.5,219C 521.833,219.333 562.167,219.667 602.5,220C 603.357,220.689 604.023,221.522 604.5,222.5C 562.5,223.167 520.5,223.833 478.5,224.5C 478.023,225.478 477.357,226.311 476.5,227C 521.833,227.333 567.167,227.667 612.5,228C 613.973,228.71 614.64,229.876 614.5,231.5C 567.162,231.167 519.829,231.5 472.5,232.5C 472.291,233.086 471.957,233.586 471.5,234C 521.5,234.333 571.5,234.667 621.5,235C 622.5,235.833 623.5,236.667 624.5,237.5C 572.167,238.167 519.833,238.833 467.5,239.5C 467.023,240.478 466.357,241.311 465.5,242C 520.833,242.333 576.167,242.667 631.5,243C 632.91,243.368 633.91,244.201 634.5,245.5C 576.833,246.167 519.167,246.833 461.5,247.5C 461.023,248.478 460.357,249.311 459.5,250C 520.167,250.333 580.833,250.667 641.5,251C 642.91,251.368 643.91,252.201 644.5,253.5C 581.836,254.333 519.169,254.833 456.5,255C 454.662,257.303 452.328,257.969 449.5,257C 451.5,254.333 453.5,251.667 455.5,249C 410.5,248.333 365.5,248.333 320.5,249C 317.994,251.952 315.827,252.119 314,249.5C 327.01,237.126 337.844,223.126 346.5,207.5C 352.994,202.752 359.661,198.252 366.5,194C 374.74,184.602 382.74,175.102 390.5,165.5C 393.594,165.403 396.26,164.403 398.5,162.5C 406.676,163.167 415.01,163.833 423.5,164.5C 423.709,165.086 424.043,165.586 424.5,166C 414.483,166.168 404.483,166.668 394.5,167.5C 394.023,168.478 393.357,169.311 392.5,170C 404.167,170.333 415.833,170.667 427.5,171C 427.957,171.414 428.291,171.914 428.5,172.5C 415.167,173.167 401.833,173.833 388.5,174.5C 388.291,175.086 387.957,175.586 387.5,176C 402.167,176.333 416.833,176.667 431.5,177C 432.357,177.689 433.023,178.522 433.5,179.5C 416.843,180.333 400.177,180.833 383.5,181C 382.833,181.667 382.167,182.333 381.5,183C 399.833,183.333 418.167,183.667 436.5,184C 437.337,185.011 437.67,186.178 437.5,187.5C 417.497,187.333 397.497,187.5 377.5,188C 377.043,188.414 376.709,188.914 376.5,189.5C 398.159,190.333 419.826,190.833 441.5,191C 442.91,191.368 443.91,192.201 444.5,193.5C 420.507,194.333 396.507,194.833 372.5,195C 371.833,195.667 371.167,196.333 370.5,197C 397.498,197.5 424.498,197.667 451.5,197.5C 451.67,198.822 451.337,199.989 450.5,201C 421.167,201.333 391.833,201.667 362.5,202C 361.328,202.419 360.328,203.085 359.5,204C 388.506,204.167 417.506,204.667 446.5,205.5C 446.167,206.167 445.833,206.833 445.5,207.5C 414.505,208.333 383.505,208.833 352.5,209C 351.328,209.419 350.328,210.085 349.5,211C 380.5,211.333 411.5,211.667 442.5,212C 442.043,212.414 441.709,212.914 441.5,213.5C 410.172,214.333 378.839,214.833 347.5,215C 347.043,215.414 346.709,215.914 346.5,216.5C 376.833,217.167 407.167,217.833 437.5,218.5C 437.167,219.167 436.833,219.833 436.5,220.5C 405.505,221.333 374.505,221.833 343.5,222C 342.833,222.667 342.167,223.333 341.5,224C 371.832,224.5 402.165,224.667 432.5,224.5C 432.67,225.822 432.337,226.989 431.5,228C 400.833,228.333 370.167,228.667 339.5,229C 338.833,229.667 338.167,230.333 337.5,231C 370.5,231.333 403.5,231.667 436.5,232C 438.002,232.583 439.335,233.416 440.5,234.5C 404.505,235.333 368.505,235.833 332.5,236C 332.043,236.414 331.709,236.914 331.5,237.5C 371.162,238.333 410.829,238.833 450.5,239C 452.002,239.583 453.335,240.416 454.5,241.5C 411.837,242.333 369.171,242.833 326.5,243C 325.833,243.667 325.167,244.333 324.5,245C 369.167,245.667 413.833,245.667 458.5,245C 464.333,237.167 470.167,229.333 476,221.5C 481.106,211.622 485.939,201.622 490.5,191.5C 495.526,186.805 500.526,182.139 505.5,177.5C 490.346,163.179 475.679,148.345 461.5,133C 457.258,130.39 453.258,127.557 449.5,124.5C 450.568,123.566 451.901,123.232 453.5,123.5C 457.262,125.413 460.929,127.579 464.5,130C 478.971,145.471 493.804,160.638 509,175.5C 511.854,173.402 514.521,171.069 517,168.5C 532.59,143.649 548.923,119.316 566,95.5C 573.198,92.8812 580.198,89.8812 587,86.5C 592.167,75.5 597.333,64.5 602.5,53.5C 603.167,53.1667 603.833,52.8333 604.5,52.5C 616.739,61.2294 628.572,70.5627 640,80.5C 643.191,93.9309 646.691,107.264 650.5,120.5C 656.813,124.167 662.813,128.167 668.5,132.5 Z"/></g>
<g><path style="opacity:0.992" fill="#e7c473" d="M 453.5,123.5 C 451.901,123.232 450.568,123.566 449.5,124.5C 446.882,123.055 444.382,121.389 442,119.5C 441.5,120 441,120.5 440.5,121C 441.38,122.356 441.714,123.856 441.5,125.5C 439.284,125.275 437.617,126.108 436.5,128C 438.134,128.494 439.801,128.66 441.5,128.5C 441.67,129.822 441.337,130.989 440.5,132C 437.349,131.988 434.682,132.988 432.5,135C 435.146,135.497 437.813,135.664 440.5,135.5C 440.5,136.833 440.5,138.167 440.5,139.5C 436.774,139.177 433.107,139.511 429.5,140.5C 429.291,141.086 428.957,141.586 428.5,142C 432.486,142.499 436.486,142.666 440.5,142.5C 440.5,143.833 440.5,145.167 440.5,146.5C 431.161,146.334 421.827,146.5 412.5,147C 411.833,147.667 411.167,148.333 410.5,149C 420.184,149.168 429.851,149.668 439.5,150.5C 438.91,151.799 437.91,152.632 436.5,153C 426.5,153.333 416.5,153.667 406.5,154C 405.833,154.667 405.167,155.333 404.5,156C 412.853,156.168 421.187,156.668 429.5,157.5C 428.91,158.799 427.91,159.632 426.5,160C 417.833,160.333 409.167,160.667 400.5,161C 399.956,161.717 399.289,162.217 398.5,162.5C 396.26,164.403 393.594,165.403 390.5,165.5C 396.944,158.124 403.278,150.624 409.5,143C 415.209,141.7 420.709,139.867 426,137.5C 430.374,129.917 434.874,122.417 439.5,115C 444.748,116.722 449.415,119.555 453.5,123.5 Z"/></g>
<g><path style="opacity:0.997" fill="#e5c478" d="M 593.5,332.5 C 596.876,332.952 600.209,333.618 603.5,334.5C 604.647,336.765 604.814,339.098 604,341.5C 597.006,334.185 589.673,334.185 582,341.5C 575.223,356.272 579.556,365.939 595,370.5C 597,369.833 599,369.167 601,368.5C 601.667,364.167 601.667,359.833 601,355.5C 600.355,354.354 599.522,353.354 598.5,352.5C 601.833,351.167 605.167,351.167 608.5,352.5C 607.478,353.354 606.645,354.354 606,355.5C 605.667,360.833 605.333,366.167 605,371.5C 581.926,376.753 571.926,367.753 575,344.5C 579.019,337.08 585.186,333.08 593.5,332.5 Z"/></g>
<g><path style="opacity:0.997" fill="#e5c478" d="M 908.5,332.5 C 925.936,334.686 932.436,344.353 928,361.5C 921.928,371.781 913.095,375.281 901.5,372C 890.756,366.111 887.256,357.278 891,345.5C 894.455,337.868 900.288,333.535 908.5,332.5 Z M 908.5,335.5 C 918.588,337.428 923.921,343.595 924.5,354C 923.136,366.329 916.469,371.329 904.5,369C 893.594,361.252 891.761,351.752 899,340.5C 901.907,338.132 905.074,336.465 908.5,335.5 Z"/></g>
<g><path style="opacity:0.996" fill="#e5c577" d="M 1096.5,332.5 C 1109.58,333.084 1116.58,339.917 1117.5,353C 1114.91,369.25 1105.58,375.583 1089.5,372C 1078.96,366.752 1075.12,358.252 1078,346.5C 1081.45,338.044 1087.62,333.378 1096.5,332.5 Z M 1095.5,335.5 C 1105.91,336.913 1111.58,342.913 1112.5,353.5C 1111.34,362.826 1106.17,368.492 1097,370.5C 1083.06,365.292 1079.06,355.959 1085,342.5C 1087.7,338.748 1091.2,336.415 1095.5,335.5 Z"/></g>
<g><path style="opacity:0.997" fill="#e5c477" d="M 1199.5,357.5 C 1199.5,360.167 1199.5,362.833 1199.5,365.5C 1198.35,368.815 1196.01,370.982 1192.5,372C 1187.1,372.772 1181.76,372.439 1176.5,371C 1175.22,368.534 1175.22,366.034 1176.5,363.5C 1178.11,367.892 1181.28,369.892 1186,369.5C 1190.98,369.519 1193.82,367.019 1194.5,362C 1194.36,359.849 1193.36,358.182 1191.5,357C 1185.8,355.07 1180.64,352.236 1176,348.5C 1173.2,339.118 1176.7,333.785 1186.5,332.5C 1189.5,333.167 1192.5,333.833 1195.5,334.5C 1196.83,336.833 1196.83,339.167 1195.5,341.5C 1194.13,337.454 1191.29,335.454 1187,335.5C 1178.88,337.872 1177.72,342.039 1183.5,348C 1189.93,349.611 1195.26,352.778 1199.5,357.5 Z"/></g>
<g><path style="opacity:0.993" fill="#e5c479" d="M -0.5,333.5 C 7.16667,333.5 14.8333,333.5 22.5,333.5C 22.7989,335.604 22.4656,337.604 21.5,339.5C 20.7132,338.758 20.0465,337.925 19.5,337C 15.1794,336.501 10.8461,336.334 6.5,336.5C 6.5,341.167 6.5,345.833 6.5,350.5C 9.8499,350.665 13.1832,350.498 16.5,350C 18.9304,346.519 19.9304,347.019 19.5,351.5C 19.3333,352.833 19.1667,354.167 19,355.5C 18.5,355 18,354.5 17.5,354C 13.8484,353.501 10.1817,353.335 6.5,353.5C 6.5,358.833 6.5,364.167 6.5,369.5C 11.1785,369.666 15.8452,369.499 20.5,369C 21.7717,367.693 22.7717,366.193 23.5,364.5C 24.48,367.086 24.8134,369.753 24.5,372.5C 16.1667,372.5 7.83333,372.5 -0.5,372.5C -0.5,371.833 -0.5,371.167 -0.5,370.5C 0.829108,365.04 1.49577,359.207 1.5,353C 1.49577,346.793 0.829108,340.96 -0.5,335.5C -0.5,334.833 -0.5,334.167 -0.5,333.5 Z"/></g>
<g><path style="opacity:0.998" fill="#e5c478" d="M 36.5,333.5 C 38.924,333.192 41.2573,333.526 43.5,334.5C 49.6667,344.167 55.8333,353.833 62,363.5C 62.1667,358.833 62.3333,354.167 62.5,349.5C 62.4455,344.321 61.7789,339.321 60.5,334.5C 63.1667,333.167 65.8333,333.167 68.5,334.5C 67.4783,335.354 66.6449,336.354 66,337.5C 65.5001,349.162 65.3335,360.829 65.5,372.5C 63.2776,372.822 61.4443,372.155 60,370.5C 53.7495,361.001 47.7495,351.334 42,341.5C 41.3333,350.833 41.3333,360.167 42,369.5C 42.6924,370.025 43.1924,370.692 43.5,371.5C 41.1667,372.833 38.8333,372.833 36.5,371.5C 36.8076,370.692 37.3076,370.025 38,369.5C 38.6667,358.5 38.6667,347.5 38,336.5C 36.9614,335.756 36.4614,334.756 36.5,333.5 Z"/></g>
<g><path style="opacity:0.999" fill="#e5c478" d="M 79.5,333.5 C 88.5,333.5 97.5,333.5 106.5,333.5C 106.808,335.924 106.474,338.257 105.5,340.5C 103.183,336.91 99.8492,335.577 95.5,336.5C 95.3335,347.838 95.5001,359.172 96,370.5C 96.5,371 97,371.5 97.5,372C 94.4459,372.821 91.4459,372.655 88.5,371.5C 88.8076,370.692 89.3076,370.025 90,369.5C 90.4998,358.505 90.6665,347.505 90.5,336.5C 87.8127,336.336 85.146,336.503 82.5,337C 81.9288,338.205 81.2621,339.372 80.5,340.5C 79.5258,338.257 79.1924,335.924 79.5,333.5 Z"/></g>
<g><path style="opacity:0.994" fill="#e4c479" d="M 117.5,333.5 C 125.167,333.5 132.833,333.5 140.5,333.5C 140.799,335.604 140.466,337.604 139.5,339.5C 138.713,338.758 138.047,337.925 137.5,337C 133.179,336.501 128.846,336.334 124.5,336.5C 124.5,341.167 124.5,345.833 124.5,350.5C 127.518,350.665 130.518,350.498 133.5,350C 134.646,349.355 135.646,348.522 136.5,347.5C 137.833,350.167 137.833,352.833 136.5,355.5C 132.759,353.669 128.759,353.003 124.5,353.5C 124.5,358.833 124.5,364.167 124.5,369.5C 128.846,369.666 133.179,369.499 137.5,369C 139.259,367.992 140.426,366.492 141,364.5C 141.497,367.146 141.664,369.813 141.5,372.5C 133.472,372.831 125.472,372.498 117.5,371.5C 117.808,370.692 118.308,370.025 119,369.5C 119.667,358.5 119.667,347.5 119,336.5C 117.961,335.756 117.461,334.756 117.5,333.5 Z"/></g>
<g><path style="opacity:0.998" fill="#e4c578" d="M 154.5,333.5 C 159.511,333.334 164.511,333.501 169.5,334C 178.356,337.758 179.689,343.425 173.5,351C 171.913,351.862 170.246,352.529 168.5,353C 172.622,359.616 177.288,365.783 182.5,371.5C 180.579,372.641 178.579,372.808 176.5,372C 171.469,366.102 166.802,359.936 162.5,353.5C 161.337,359.137 161.17,364.804 162,370.5C 162.5,371 163,371.5 163.5,372C 160.446,372.821 157.446,372.655 154.5,371.5C 154.808,370.692 155.308,370.025 156,369.5C 156.667,358.5 156.667,347.5 156,336.5C 154.961,335.756 154.461,334.756 154.5,333.5 Z M 161.5,336.5 C 166.988,335.81 170.654,337.976 172.5,343C 170.913,348.466 167.246,350.966 161.5,350.5C 161.5,345.833 161.5,341.167 161.5,336.5 Z"/></g>
<g><path style="opacity:0.998" fill="#e5c479" d="M 193.5,334.5 C 199.39,333.176 205.39,333.343 211.5,335C 218.669,342.328 217.669,348.328 208.5,353C 205.883,353.822 203.216,354.322 200.5,354.5C 200.334,359.179 200.501,363.845 201,368.5C 201.465,369.931 202.299,371.097 203.5,372C 200.167,372.667 196.833,372.667 193.5,372C 194.701,371.097 195.535,369.931 196,368.5C 196.667,358.167 196.667,347.833 196,337.5C 195.623,336.058 194.79,335.058 193.5,334.5 Z M 200.5,336.5 C 206.246,336.034 209.913,338.534 211.5,344C 209.601,348.959 205.934,351.459 200.5,351.5C 200.5,346.5 200.5,341.5 200.5,336.5 Z"/></g>
<g><path style="opacity:0.999" fill="#e5c478" d="M 228.5,333.5 C 233.844,333.334 239.177,333.501 244.5,334C 249.466,334.921 252.133,337.921 252.5,343C 251.954,348.546 248.954,351.879 243.5,353C 247.571,359.654 252.238,365.82 257.5,371.5C 254.761,372.767 252.094,372.601 249.5,371C 245.957,365.414 242.291,359.914 238.5,354.5C 237.675,353.614 236.675,353.281 235.5,353.5C 235.334,358.511 235.501,363.511 236,368.5C 236.465,369.931 237.299,371.097 238.5,372C 235.167,372.667 231.833,372.667 228.5,372C 229.701,371.097 230.535,369.931 231,368.5C 231.667,358.167 231.667,347.833 231,337.5C 229.915,336.264 229.082,334.931 228.5,333.5 Z M 235.5,336.5 C 241.355,335.594 245.355,337.761 247.5,343C 245.613,348.781 241.613,351.281 235.5,350.5C 235.5,345.833 235.5,341.167 235.5,336.5 Z"/></g>
<g><path style="opacity:0.997" fill="#e4c378" d="M 269.5,333.5 C 272.572,333.183 275.572,333.516 278.5,334.5C 277.209,340.495 276.543,346.661 276.5,353C 276.543,359.339 277.209,365.505 278.5,371.5C 275.5,372.833 272.5,372.833 269.5,371.5C 269.808,370.692 270.308,370.025 271,369.5C 271.667,358.5 271.667,347.5 271,336.5C 269.961,335.756 269.461,334.756 269.5,333.5 Z"/></g>
<g><path style="opacity:0.997" fill="#e5c479" d="M 302.5,332.5 C 305.456,333.137 308.456,333.637 311.5,334C 312.602,336.401 312.769,338.901 312,341.5C 310.56,337.292 307.56,335.292 303,335.5C 297.635,336.856 295.635,340.19 297,345.5C 301.472,348.653 306.306,351.153 311.5,353C 318.167,359 318.167,365 311.5,371C 305.223,372.784 298.889,372.951 292.5,371.5C 292.336,368.813 292.503,366.146 293,363.5C 294.3,367.987 297.3,369.987 302,369.5C 307.264,369.956 310.431,367.623 311.5,362.5C 310.752,360.668 309.752,359.001 308.5,357.5C 304.65,355.409 300.65,353.576 296.5,352C 290.222,346.755 289.889,341.088 295.5,335C 297.927,334.098 300.26,333.264 302.5,332.5 Z"/></g>
<g><path style="opacity:0.993" fill="#e5c478" d="M 328.5,333.5 C 336.5,333.5 344.5,333.5 352.5,333.5C 352.799,335.604 352.466,337.604 351.5,339.5C 350.354,338.855 349.354,338.022 348.5,337C 344.179,336.501 339.846,336.334 335.5,336.5C 335.5,341.167 335.5,345.833 335.5,350.5C 338.85,350.665 342.183,350.498 345.5,350C 346.646,349.355 347.646,348.522 348.5,347.5C 349.833,350.167 349.833,352.833 348.5,355.5C 344.418,353.654 340.085,352.987 335.5,353.5C 335.5,358.833 335.5,364.167 335.5,369.5C 340.179,369.666 344.845,369.499 349.5,369C 350.772,367.693 351.772,366.193 352.5,364.5C 353.48,367.086 353.813,369.753 353.5,372.5C 345.16,372.666 336.827,372.5 328.5,372C 329.701,371.097 330.535,369.931 331,368.5C 331.667,358.167 331.667,347.833 331,337.5C 329.915,336.264 329.082,334.931 328.5,333.5 Z"/></g>
<g><path style="opacity:0.998" fill="#e5c478" d="M 389.5,333.5 C 392.119,333.232 394.619,333.565 397,334.5C 401.195,344.086 405.195,353.752 409,363.5C 413.591,353.982 417.924,344.315 422,334.5C 424.466,333.223 426.966,333.223 429.5,334.5C 429.192,335.308 428.692,335.975 428,336.5C 427.333,347.5 427.333,358.5 428,369.5C 428.692,370.025 429.192,370.692 429.5,371.5C 426.5,372.833 423.5,372.833 420.5,371.5C 421.779,366.679 422.446,361.679 422.5,356.5C 422.333,351.833 422.167,347.167 422,342.5C 417.591,352.983 412.924,363.316 408,373.5C 403.667,363.5 399.333,353.5 395,343.5C 394.333,352.167 394.333,360.833 395,369.5C 395.692,370.025 396.192,370.692 396.5,371.5C 394.167,372.833 391.833,372.833 389.5,371.5C 390.791,365.505 391.457,359.339 391.5,353C 391.419,346.332 390.752,339.832 389.5,333.5 Z"/></g>
<g><path style="opacity:0.997" fill="#e5c478" d="M 457.5,332.5 C 462.462,343.535 466.962,354.868 471,366.5C 471.674,368.517 472.841,370.183 474.5,371.5C 471.5,372.833 468.5,372.833 465.5,371.5C 465.931,370.707 466.265,369.873 466.5,369C 464.861,364.887 463.361,360.721 462,356.5C 458.667,355.167 455.333,355.167 452,356.5C 450.697,360.743 449.197,364.91 447.5,369C 447.735,369.873 448.069,370.707 448.5,371.5C 446.167,372.833 443.833,372.833 441.5,371.5C 443.159,370.183 444.326,368.517 445,366.5C 449.272,355.182 453.439,343.848 457.5,332.5 Z M 456.5,343.5 C 458.105,346.12 459.438,348.953 460.5,352C 458.167,352.667 455.833,352.667 453.5,352C 454.798,349.273 455.798,346.44 456.5,343.5 Z"/></g>
<g><path style="opacity:0.998" fill="#e5c478" d="M 485.5,333.5 C 488.685,333.02 491.519,333.686 494,335.5C 500,344.833 506,354.167 512,363.5C 512.167,358.833 512.333,354.167 512.5,349.5C 512.446,344.321 511.779,339.321 510.5,334.5C 512.833,333.167 515.167,333.167 517.5,334.5C 517.192,335.308 516.692,335.975 516,336.5C 515.5,348.495 515.333,360.495 515.5,372.5C 513.712,372.785 512.045,372.452 510.5,371.5C 504.333,361.833 498.167,352.167 492,342.5C 491.833,347.167 491.667,351.833 491.5,356.5C 491.554,361.679 492.221,366.679 493.5,371.5C 491.167,372.833 488.833,372.833 486.5,371.5C 486.808,370.692 487.308,370.025 488,369.5C 488.667,358.5 488.667,347.5 488,336.5C 486.583,335.922 485.75,334.922 485.5,333.5 Z"/></g>
<g><path style="opacity:0.997" fill="#e5c477" d="M 545.5,332.5 C 550.796,344.536 555.629,356.87 560,369.5C 560.925,370.047 561.758,370.713 562.5,371.5C 559.5,372.833 556.5,372.833 553.5,371.5C 553.457,366.336 552.123,361.336 549.5,356.5C 546.291,355.213 543.125,355.213 540,356.5C 538.639,360.721 537.139,364.887 535.5,369C 535.735,369.873 536.069,370.707 536.5,371.5C 534.167,372.833 531.833,372.833 529.5,371.5C 531.159,370.183 532.326,368.517 533,366.5C 537.272,355.182 541.439,343.848 545.5,332.5 Z M 544.5,343.5 C 546.105,346.12 547.438,348.953 548.5,352C 546.098,352.814 543.765,352.647 541.5,351.5C 542.9,348.965 543.9,346.298 544.5,343.5 Z"/></g>
<g><path style="opacity:0.993" fill="#e3c579" d="M 620.5,333.5 C 628.167,333.5 635.833,333.5 643.5,333.5C 643.662,335.527 643.495,337.527 643,339.5C 642.167,338.667 641.333,337.833 640.5,337C 636.179,336.501 631.846,336.334 627.5,336.5C 627.5,341.167 627.5,345.833 627.5,350.5C 632.361,351.261 636.695,350.261 640.5,347.5C 641.833,350.167 641.833,352.833 640.5,355.5C 636.443,353.641 632.109,352.974 627.5,353.5C 627.5,358.833 627.5,364.167 627.5,369.5C 632.179,369.666 636.845,369.499 641.5,369C 642.772,367.693 643.772,366.193 644.5,364.5C 645.48,367.086 645.813,369.753 645.5,372.5C 637.16,372.666 628.827,372.5 620.5,372C 621,371.5 621.5,371 622,370.5C 623.079,357.99 622.579,345.657 620.5,333.5 Z"/></g>
<g><path style="opacity:0.998" fill="#e5c478" d="M 657.5,333.5 C 660.119,333.232 662.619,333.565 665,334.5C 669.195,344.086 673.195,353.752 677,363.5C 681.591,353.982 685.924,344.315 690,334.5C 692.466,333.223 694.966,333.223 697.5,334.5C 697.192,335.308 696.692,335.975 696,336.5C 695.333,347.5 695.333,358.5 696,369.5C 696.692,370.025 697.192,370.692 697.5,371.5C 694.5,372.833 691.5,372.833 688.5,371.5C 689.779,366.679 690.446,361.679 690.5,356.5C 690.333,351.833 690.167,347.167 690,342.5C 685.591,352.983 680.924,363.316 676,373.5C 671.667,363.5 667.333,353.5 663,343.5C 662.333,352.167 662.333,360.833 663,369.5C 663.692,370.025 664.192,370.692 664.5,371.5C 662.167,372.833 659.833,372.833 657.5,371.5C 658.791,365.505 659.457,359.339 659.5,353C 659.419,346.332 658.752,339.832 657.5,333.5 Z"/></g>
<g><path style="opacity:0.993" fill="#e5c478" d="M 711.5,333.5 C 719.167,333.5 726.833,333.5 734.5,333.5C 734.799,335.604 734.466,337.604 733.5,339.5C 732.713,338.758 732.047,337.925 731.5,337C 727.179,336.501 722.846,336.334 718.5,336.5C 718.5,341.167 718.5,345.833 718.5,350.5C 721.518,350.665 724.518,350.498 727.5,350C 728.646,349.355 729.646,348.522 730.5,347.5C 731.833,350.167 731.833,352.833 730.5,355.5C 726.759,353.669 722.759,353.003 718.5,353.5C 718.5,358.833 718.5,364.167 718.5,369.5C 722.846,369.666 727.179,369.499 731.5,369C 733.049,367.786 734.215,366.286 735,364.5C 735.497,367.146 735.664,369.813 735.5,372.5C 727.472,372.831 719.472,372.498 711.5,371.5C 711.808,370.692 712.308,370.025 713,369.5C 713.667,358.5 713.667,347.5 713,336.5C 711.961,335.756 711.461,334.756 711.5,333.5 Z"/></g>
<g><path style="opacity:0.998" fill="#e5c478" d="M 747.5,333.5 C 750.685,333.02 753.519,333.686 756,335.5C 762.251,344.999 768.251,354.666 774,364.5C 774.667,355.167 774.667,345.833 774,336.5C 773.308,335.975 772.808,335.308 772.5,334.5C 774.833,333.167 777.167,333.167 779.5,334.5C 779.192,335.308 778.692,335.975 778,336.5C 777.5,348.495 777.333,360.495 777.5,372.5C 775.712,372.785 774.045,372.452 772.5,371.5C 766.333,361.833 760.167,352.167 754,342.5C 753.333,351.833 753.333,361.167 754,370.5C 754.5,371 755,371.5 755.5,372C 752.833,372.667 750.167,372.667 747.5,372C 748.701,371.097 749.535,369.931 750,368.5C 750.667,357.833 750.667,347.167 750,336.5C 748.583,335.922 747.75,334.922 747.5,333.5 Z"/></g>
<g><path style="opacity:0.999" fill="#e7c979" d="M 791.5,333.5 C 800.167,333.5 808.833,333.5 817.5,333.5C 817.663,335.857 817.497,338.19 817,340.5C 816.044,339.421 815.211,338.255 814.5,337C 811.854,336.503 809.187,336.336 806.5,336.5C 806.333,347.505 806.5,358.505 807,369.5C 807.692,370.025 808.192,370.692 808.5,371.5C 805.554,372.655 802.554,372.821 799.5,372C 800,371.5 800.5,371 801,370.5C 801.5,359.172 801.667,347.838 801.5,336.5C 799.143,336.337 796.81,336.503 794.5,337C 793.299,337.903 792.465,339.069 792,340.5C 791.503,338.19 791.337,335.857 791.5,333.5 Z"/></g>
<g><path style="opacity:0.998" fill="#e5c478" d="M 863.5,332.5 C 866.456,333.137 869.456,333.637 872.5,334C 873.602,336.401 873.769,338.901 873,341.5C 871.56,337.292 868.56,335.292 864,335.5C 858.635,336.856 856.635,340.19 858,345.5C 862.472,348.653 867.306,351.153 872.5,353C 879.167,359 879.167,365 872.5,371C 866.223,372.784 859.889,372.951 853.5,371.5C 853.336,368.813 853.503,366.146 854,363.5C 855.3,367.987 858.3,369.987 863,369.5C 868.225,369.97 871.392,367.637 872.5,362.5C 871.752,360.668 870.752,359.001 869.5,357.5C 865.65,355.409 861.65,353.576 857.5,352C 852.335,348.279 851.168,343.446 854,337.5C 856.64,334.599 859.807,332.932 863.5,332.5 Z"/></g>
<g><path style="opacity:0.996" fill="#e5c478" d="M 942.5,333.5 C 945.572,333.183 948.572,333.516 951.5,334.5C 951.192,335.308 950.692,335.975 950,336.5C 949.5,347.495 949.333,358.495 949.5,369.5C 954.179,369.666 958.845,369.499 963.5,369C 964.376,367.414 965.376,365.914 966.5,364.5C 967.48,367.086 967.813,369.753 967.5,372.5C 959.14,372.831 950.807,372.498 942.5,371.5C 943.791,365.505 944.457,359.339 944.5,353C 944.419,346.332 943.752,339.832 942.5,333.5 Z"/></g>
<g><path style="opacity:0.997" fill="#e5c478" d="M 976.5,333.5 C 979.572,333.183 982.572,333.516 985.5,334.5C 984.219,339.489 983.552,344.656 983.5,350C 983.667,354.833 983.833,359.667 984,364.5C 986.695,370.098 990.862,371.598 996.5,369C 998.487,367.681 999.654,365.848 1000,363.5C 1000.67,354.5 1000.67,345.5 1000,336.5C 999.308,335.975 998.808,335.308 998.5,334.5C 1000.83,333.167 1003.17,333.167 1005.5,334.5C 1003.72,344.315 1002.89,354.315 1003,364.5C 1001.45,370.622 997.449,373.622 991,373.5C 986.626,373.3 982.959,371.633 980,368.5C 978.737,357.906 978.07,347.239 978,336.5C 976.961,335.756 976.461,334.756 976.5,333.5 Z"/></g>
<g><path style="opacity:0.999" fill="#e5c378" d="M 1016.5,333.5 C 1025.5,333.5 1034.5,333.5 1043.5,333.5C 1043.81,335.924 1043.47,338.257 1042.5,340.5C 1041.77,339.066 1040.77,337.9 1039.5,337C 1037.19,336.503 1034.86,336.337 1032.5,336.5C 1032.33,347.505 1032.5,358.505 1033,369.5C 1033.69,370.025 1034.19,370.692 1034.5,371.5C 1031.5,372.833 1028.5,372.833 1025.5,371.5C 1027.45,360.018 1028.12,348.351 1027.5,336.5C 1023.15,335.577 1019.82,336.91 1017.5,340.5C 1016.53,338.257 1016.19,335.924 1016.5,333.5 Z"/></g>
<g><path style="opacity:0.999" fill="#e5c478" d="M 1054.5,333.5 C 1057.9,333.18 1061.23,333.513 1064.5,334.5C 1063.48,335.354 1062.64,336.354 1062,337.5C 1061.33,347.833 1061.33,358.167 1062,368.5C 1062.47,369.931 1063.3,371.097 1064.5,372C 1061.17,372.667 1057.83,372.667 1054.5,372C 1055.7,371.097 1056.53,369.931 1057,368.5C 1057.67,358.167 1057.67,347.833 1057,337.5C 1055.92,336.264 1055.08,334.931 1054.5,333.5 Z"/></g>
<g><path style="opacity:0.998" fill="#e5c478" d="M 1130.5,333.5 C 1132.92,333.192 1135.26,333.526 1137.5,334.5C 1143.47,344.301 1149.64,353.967 1156,363.5C 1156.17,358.833 1156.33,354.167 1156.5,349.5C 1156.45,344.321 1155.78,339.321 1154.5,334.5C 1156.83,333.167 1159.17,333.167 1161.5,334.5C 1161.19,335.308 1160.69,335.975 1160,336.5C 1159.5,348.495 1159.33,360.495 1159.5,372.5C 1157.71,372.785 1156.05,372.452 1154.5,371.5C 1148.14,361.632 1141.97,351.632 1136,341.5C 1135.83,346.333 1135.67,351.167 1135.5,356C 1135.55,361.344 1136.22,366.511 1137.5,371.5C 1135.17,372.833 1132.83,372.833 1130.5,371.5C 1130.81,370.692 1131.31,370.025 1132,369.5C 1132.67,358.5 1132.67,347.5 1132,336.5C 1130.96,335.756 1130.46,334.756 1130.5,333.5 Z"/></g>
<g><path style="opacity:0.992" fill="#e6c478" d="M 728.5,451.5 C 727.833,451.5 727.167,451.5 726.5,451.5C 724.611,450.678 722.611,449.845 720.5,449C 721.108,448.13 721.941,447.63 723,447.5C 725.453,448.493 727.953,448.66 730.5,448C 732.978,446.062 733.145,443.895 731,441.5C 728.667,439.833 726.333,438.167 724,436.5C 720.708,430.169 722.541,426.503 729.5,425.5C 731.071,426.309 732.738,426.643 734.5,426.5C 734.719,427.675 734.386,428.675 733.5,429.5C 730.085,427.847 727.085,428.347 724.5,431C 727,434.833 730.167,438 734,440.5C 736.79,446.531 734.957,450.198 728.5,451.5 Z"/></g>
<g><path style="opacity:0.995" fill="#e5c577" d="M 761.5,451.5 C 760.833,451.5 760.167,451.5 759.5,451.5C 757.611,450.678 755.611,449.845 753.5,449C 754.108,448.13 754.941,447.63 756,447.5C 758.453,448.493 760.953,448.66 763.5,448C 765.978,446.062 766.145,443.895 764,441.5C 761.667,439.833 759.333,438.167 757,436.5C 753.816,430.509 755.483,426.842 762,425.5C 763.766,426.233 765.599,426.567 767.5,426.5C 767.719,427.675 767.386,428.675 766.5,429.5C 763.085,427.847 760.085,428.347 757.5,431C 760,434.833 763.167,438 767,440.5C 769.79,446.531 767.957,450.198 761.5,451.5 Z"/></g>
<g><path style="opacity:0.996" fill="#e5c578" d="M 18.5,426.5 C 19.4959,426.414 20.3292,426.748 21,427.5C 24.0376,435.073 27.2043,442.573 30.5,450C 29.2161,450.684 28.0495,450.517 27,449.5C 25.2903,442.952 21.1236,440.952 14.5,443.5C 13.3906,445.385 12.5573,447.385 12,449.5C 10.9505,450.517 9.78387,450.684 8.5,450C 11.9773,442.214 15.3107,434.38 18.5,426.5 Z M 18.5,432.5 C 19.3764,432.369 20.0431,432.702 20.5,433.5C 21.2135,435.811 22.2135,437.978 23.5,440C 20.8333,440.667 18.1667,440.667 15.5,440C 16.6422,437.55 17.6422,435.05 18.5,432.5 Z"/></g>
<g><path style="opacity:1" fill="#e5c479" d="M 43.5,426.5 C 49.5368,426.171 55.5368,426.504 61.5,427.5C 58.9135,428.48 56.2469,428.813 53.5,428.5C 52.8333,457.833 52.1667,457.833 51.5,428.5C 48.3019,429.036 45.6353,428.369 43.5,426.5 Z"/></g>
<g><path style="opacity:0.997" fill="#e4c479" d="M 103.5,426.5 C 109.868,426.17 116.202,426.504 122.5,427.5C 119.914,428.48 117.247,428.813 114.5,428.5C 114.5,435.833 114.5,443.167 114.5,450.5C 113.5,450.5 112.5,450.5 111.5,450.5C 111.5,443.167 111.5,435.833 111.5,428.5C 108.302,429.036 105.635,428.369 103.5,426.5 Z"/></g>
<g><path style="opacity:0.999" fill="#e5c378" d="M 141.5,426.5 C 143.402,429.337 144.069,432.671 143.5,436.5C 148.5,436.5 153.5,436.5 158.5,436.5C 158.5,433.167 158.5,429.833 158.5,426.5C 159.5,426.5 160.5,426.5 161.5,426.5C 161.5,434.5 161.5,442.5 161.5,450.5C 160.5,450.5 159.5,450.5 158.5,450.5C 158.5,446.5 158.5,442.5 158.5,438.5C 153.5,438.5 148.5,438.5 143.5,438.5C 143.824,442.555 143.491,446.555 142.5,450.5C 141.502,442.528 141.169,434.528 141.5,426.5 Z"/></g>
<g><path style="opacity:1" fill="#e5c479" d="M 184.5,426.5 C 188.555,426.176 192.555,426.509 196.5,427.5C 193.232,428.487 189.898,428.82 186.5,428.5C 186.5,431.167 186.5,433.833 186.5,436.5C 198.5,437.167 198.5,437.833 186.5,438.5C 186.5,441.833 186.5,445.167 186.5,448.5C 189.898,448.18 193.232,448.513 196.5,449.5C 192.555,450.491 188.555,450.824 184.5,450.5C 184.5,442.5 184.5,434.5 184.5,426.5 Z"/></g>
<g><path style="opacity:0.997" fill="#e6c477" d="M 249.5,426.5 C 251.411,426.574 252.578,427.574 253,429.5C 255.558,436.282 258.391,442.949 261.5,449.5C 261,449.833 260.5,450.167 260,450.5C 258.013,448.536 256.513,446.203 255.5,443.5C 248.876,440.952 244.71,442.952 243,449.5C 241.951,450.517 240.784,450.684 239.5,450C 242.977,442.214 246.311,434.38 249.5,426.5 Z M 249.5,432.5 C 250.376,432.369 251.043,432.702 251.5,433.5C 252.601,435.642 253.601,437.808 254.5,440C 251.833,440.667 249.167,440.667 246.5,440C 247.991,437.692 248.991,435.192 249.5,432.5 Z"/></g>
<g><path style="opacity:0.998" fill="#e5c379" d="M 280.5,426.5 C 284.637,426.146 288.637,426.646 292.5,428C 296.006,436.99 293.006,440.823 283.5,439.5C 286.36,438.82 288.86,437.487 291,435.5C 291.43,429.597 288.597,427.263 282.5,428.5C 282.831,435.863 282.497,443.197 281.5,450.5C 280.502,442.528 280.169,434.528 280.5,426.5 Z"/></g>
<g><path style="opacity:0.999" fill="#e5c479" d="M 314.5,426.5 C 318.555,426.176 322.555,426.509 326.5,427.5C 323.232,428.487 319.898,428.82 316.5,428.5C 316.5,431.167 316.5,433.833 316.5,436.5C 328.5,437.167 328.5,437.833 316.5,438.5C 316.5,441.833 316.5,445.167 316.5,448.5C 319.898,448.18 323.232,448.513 326.5,449.5C 322.555,450.491 318.555,450.824 314.5,450.5C 314.5,442.5 314.5,434.5 314.5,426.5 Z"/></g>
<g><path style="opacity:0.993" fill="#e7c576" d="M 344.5,426.5 C 345.822,426.33 346.989,426.663 348,427.5C 349.667,430.167 351.333,432.833 353,435.5C 355.029,432.971 356.862,430.304 358.5,427.5C 359.5,426.167 360.5,426.167 361.5,427.5C 359.539,431.258 357.205,434.758 354.5,438C 356.959,441.75 359.292,445.583 361.5,449.5C 360.349,450.731 359.183,450.731 358,449.5C 356.333,446.5 354.667,443.5 353,440.5C 350.71,443.58 348.543,446.747 346.5,450C 345.365,450.749 344.365,450.583 343.5,449.5C 346.043,445.579 348.71,441.746 351.5,438C 348.516,434.527 346.183,430.694 344.5,426.5 Z"/></g>
<g><path style="opacity:0.996" fill="#e5c478" d="M 419.5,451.5 C 418.833,451.5 418.167,451.5 417.5,451.5C 406.989,447.793 404.155,440.793 409,430.5C 415.91,423.925 422.576,424.258 429,431.5C 432.777,441.731 429.61,448.397 419.5,451.5 Z M 415.5,428.5 C 424.97,428.474 428.804,433.141 427,442.5C 424.647,447.426 420.814,449.26 415.5,448C 409.975,445.081 408.142,440.581 410,434.5C 411.36,431.977 413.193,429.977 415.5,428.5 Z"/></g>
<g><path style="opacity:0.999" fill="#e5c479" d="M 451.5,426.5 C 455.884,426.174 460.217,426.508 464.5,427.5C 461.232,428.487 457.898,428.82 454.5,428.5C 454.5,431.167 454.5,433.833 454.5,436.5C 466.5,437.167 466.5,437.833 454.5,438.5C 454.5,442.5 454.5,446.5 454.5,450.5C 453.5,450.5 452.5,450.5 451.5,450.5C 451.5,442.5 451.5,434.5 451.5,426.5 Z"/></g>
<g><path style="opacity:0.995" fill="#e5c379" d="M 511.5,426.5 C 514.85,426.335 518.183,426.502 521.5,427C 525.137,430.059 525.47,433.559 522.5,437.5C 527.285,441.36 527.618,445.526 523.5,450C 519.514,450.499 515.514,450.666 511.5,450.5C 511.5,442.5 511.5,434.5 511.5,426.5 Z M 514.5,428.5 C 521.084,428.004 522.751,430.504 519.5,436C 517.866,436.494 516.199,436.66 514.5,436.5C 514.5,433.833 514.5,431.167 514.5,428.5 Z M 514.5,438.5 C 517.311,438.826 519.978,439.659 522.5,441C 524.135,447.529 521.468,450.029 514.5,448.5C 514.5,445.167 514.5,441.833 514.5,438.5 Z"/></g>
<g><path style="opacity:0.995" fill="#e5c477" d="M 557.5,451.5 C 556.833,451.5 556.167,451.5 555.5,451.5C 552.042,450.892 549.542,448.892 548,445.5C 547.169,439.141 547.336,432.807 548.5,426.5C 549.127,432.884 549.96,439.217 551,445.5C 553.559,448.349 556.726,449.183 560.5,448C 561.701,447.097 562.535,445.931 563,444.5C 563.499,438.509 563.666,432.509 563.5,426.5C 564.5,426.5 565.5,426.5 566.5,426.5C 566.884,433.589 566.384,440.589 565,447.5C 562.887,449.733 560.387,451.067 557.5,451.5 Z"/></g>
<g><path style="opacity:0.996" fill="#e6c477" d="M 594.5,451.5 C 593.5,451.5 592.5,451.5 591.5,451.5C 589.614,450.935 587.947,449.935 586.5,448.5C 589.386,448.29 592.386,448.123 595.5,448C 597.032,447.3 598.032,446.134 598.5,444.5C 595.813,440.979 592.647,437.979 589,435.5C 586.334,429.837 588.167,426.504 594.5,425.5C 596.409,426.348 598.409,426.682 600.5,426.5C 600.5,427.5 600.5,428.5 600.5,429.5C 598.658,429.277 596.825,428.943 595,428.5C 590.624,428.89 589.624,430.89 592,434.5C 595.014,436.519 597.68,438.852 600,441.5C 601.931,447.165 600.098,450.499 594.5,451.5 Z"/></g>
<g><path style="opacity:0.99" fill="#e4c379" d="M 621.5,426.5 C 622.5,426.5 623.5,426.5 624.5,426.5C 624.5,434.5 624.5,442.5 624.5,450.5C 623.5,450.5 622.5,450.5 621.5,450.5C 621.5,442.5 621.5,434.5 621.5,426.5 Z"/></g>
<g><path style="opacity:0.998" fill="#e5c578" d="M 647.5,426.5 C 649.716,427.203 651.549,428.536 653,430.5C 657,435.167 661,439.833 665,444.5C 665.499,438.509 665.666,432.509 665.5,426.5C 666.5,426.5 667.5,426.5 668.5,426.5C 668.5,434.5 668.5,442.5 668.5,450.5C 666.61,450.703 665.11,450.037 664,448.5C 659.094,443.017 654.428,437.351 650,431.5C 649.831,437.859 649.331,444.193 648.5,450.5C 647.502,442.528 647.169,434.528 647.5,426.5 Z"/></g>
<g><path style="opacity:0.998" fill="#e5c578" d="M 690.5,426.5 C 694.555,426.176 698.555,426.509 702.5,427.5C 699.572,428.484 696.572,428.817 693.5,428.5C 693.5,431.167 693.5,433.833 693.5,436.5C 704.167,437.167 704.167,437.833 693.5,438.5C 693.5,441.833 693.5,445.167 693.5,448.5C 696.898,448.18 700.232,448.513 703.5,449.5C 699.217,450.492 694.884,450.826 690.5,450.5C 690.5,442.5 690.5,434.5 690.5,426.5 Z"/></g>
<g><path style="opacity:0.995" fill="#e5c578" d="M 817.5,426.5 C 818.496,426.414 819.329,426.748 820,427.5C 822.243,432.985 824.743,438.318 827.5,443.5C 830.151,438.198 832.818,432.864 835.5,427.5C 836.002,426.479 836.668,426.312 837.5,427C 839.099,434.758 840.432,442.591 841.5,450.5C 840.5,450.5 839.5,450.5 838.5,450.5C 837.901,444.476 837.068,438.476 836,432.5C 833.64,438.421 830.807,444.088 827.5,449.5C 824.428,444.36 821.595,439.027 819,433.5C 818.165,439.177 817.331,444.844 816.5,450.5C 815.325,450.719 814.325,450.386 813.5,449.5C 815.157,441.894 816.49,434.227 817.5,426.5 Z"/></g>
<g><path style="opacity:0.997" fill="#e5c478" d="M 867.5,426.5 C 868.5,426.5 869.5,426.5 870.5,426.5C 873.203,434.247 876.203,441.913 879.5,449.5C 878.5,450.833 877.5,450.833 876.5,449.5C 875.786,447.189 874.786,445.022 873.5,443C 870.183,442.502 866.85,442.335 863.5,442.5C 863.22,445.727 861.887,448.393 859.5,450.5C 859.167,450 858.833,449.5 858.5,449C 861.8,441.596 864.8,434.096 867.5,426.5 Z M 868.5,431.5 C 870.006,433.975 871.339,436.642 872.5,439.5C 870.257,440.474 867.924,440.808 865.5,440.5C 866.213,437.406 867.213,434.406 868.5,431.5 Z"/></g>
<g><path style="opacity:0.997" fill="#e4c575" d="M 898.5,426.5 C 899.675,426.281 900.675,426.614 901.5,427.5C 906.146,433.314 910.979,438.98 916,444.5C 916.499,438.509 916.666,432.509 916.5,426.5C 917.5,426.5 918.5,426.5 919.5,426.5C 919.831,434.528 919.498,442.528 918.5,450.5C 912.844,444.676 907.344,438.676 902,432.5C 901.501,438.491 901.334,444.491 901.5,450.5C 900.5,450.5 899.5,450.5 898.5,450.5C 898.5,442.5 898.5,434.5 898.5,426.5 Z"/></g>
<g><path style="opacity:0.997" fill="#e5c578" d="M 947.5,426.5 C 948.675,426.281 949.675,426.614 950.5,427.5C 953.74,435.059 957.074,442.559 960.5,450C 959.216,450.684 958.049,450.517 957,449.5C 956.069,447.541 955.236,445.541 954.5,443.5C 951.216,442.343 947.882,442.176 944.5,443C 943.601,445.192 942.601,447.358 941.5,449.5C 940.5,450.833 939.5,450.833 938.5,449.5C 941.797,441.913 944.797,434.247 947.5,426.5 Z M 948.5,431.5 C 950.607,434.057 951.941,437.057 952.5,440.5C 950.076,440.808 947.743,440.474 945.5,439.5C 946.9,436.965 947.9,434.298 948.5,431.5 Z"/></g>
<g><path style="opacity:0.994" fill="#e5c578" d="M 991.5,451.5 C 990.5,451.5 989.5,451.5 988.5,451.5C 978.383,448.371 975.216,441.704 979,431.5C 984.51,425.359 990.676,424.359 997.5,428.5C 993.952,428.619 990.285,428.785 986.5,429C 980.975,431.919 979.142,436.419 981,442.5C 984.187,448.236 988.854,449.902 995,447.5C 995.498,444.518 995.665,441.518 995.5,438.5C 996.5,438.5 997.5,438.5 998.5,438.5C 998.823,442.226 998.489,445.893 997.5,449.5C 995.343,450.05 993.343,450.717 991.5,451.5 Z"/></g>
<g><path style="opacity:0.998" fill="#e5c378" d="M 1020.5,426.5 C 1024.55,426.176 1028.55,426.509 1032.5,427.5C 1029.57,428.484 1026.57,428.817 1023.5,428.5C 1023.5,431.167 1023.5,433.833 1023.5,436.5C 1034.17,437.167 1034.17,437.833 1023.5,438.5C 1023.5,441.833 1023.5,445.167 1023.5,448.5C 1026.57,448.183 1029.57,448.516 1032.5,449.5C 1028.55,450.491 1024.55,450.824 1020.5,450.5C 1020.5,442.5 1020.5,434.5 1020.5,426.5 Z"/></g>
<g><path style="opacity:0.993" fill="#e5c578" d="M 1054.5,426.5 C 1055.5,426.5 1056.5,426.5 1057.5,426.5C 1059,432.507 1061.34,438.174 1064.5,443.5C 1067.15,438.198 1069.82,432.864 1072.5,427.5C 1073.32,426.614 1074.32,426.281 1075.5,426.5C 1076.13,434.549 1077.13,442.549 1078.5,450.5C 1077.5,450.5 1076.5,450.5 1075.5,450.5C 1075.09,444.448 1074.25,438.448 1073,432.5C 1070.69,438.446 1067.86,444.112 1064.5,449.5C 1061.59,444.693 1058.93,439.693 1056.5,434.5C 1055.13,439.768 1054.13,445.102 1053.5,450.5C 1052.45,450.649 1051.45,450.483 1050.5,450C 1052.31,442.28 1053.65,434.447 1054.5,426.5 Z"/></g>
<g><path style="opacity:0.963" fill="#e4c378" d="M 1098.5,426.5 C 1102.55,426.176 1106.55,426.509 1110.5,427.5C 1107.57,428.484 1104.57,428.817 1101.5,428.5C 1101.5,431.167 1101.5,433.833 1101.5,436.5C 1112.17,437.167 1112.17,437.833 1101.5,438.5C 1101.5,441.833 1101.5,445.167 1101.5,448.5C 1104.9,448.18 1108.23,448.513 1111.5,449.5C 1107.22,450.492 1102.88,450.826 1098.5,450.5C 1098.5,442.5 1098.5,434.5 1098.5,426.5 Z"/></g>
<g><path style="opacity:0.994" fill="#e4c479" d="M 1131.5,426.5 C 1134.39,427.882 1136.89,429.882 1139,432.5C 1142.33,436.5 1145.67,440.5 1149,444.5C 1149.5,438.509 1149.67,432.509 1149.5,426.5C 1150.5,426.5 1151.5,426.5 1152.5,426.5C 1152.83,434.528 1152.5,442.528 1151.5,450.5C 1145.78,444.731 1140.28,438.731 1135,432.5C 1134.5,438.491 1134.33,444.491 1134.5,450.5C 1133.5,450.5 1132.5,450.5 1131.5,450.5C 1131.5,442.5 1131.5,434.5 1131.5,426.5 Z"/></g>
<g><path style="opacity:1" fill="#e5c278" d="M 1171.5,426.5 C 1177.54,426.171 1183.54,426.504 1189.5,427.5C 1187.26,428.474 1184.92,428.808 1182.5,428.5C 1182.5,435.833 1182.5,443.167 1182.5,450.5C 1181.5,450.5 1180.5,450.5 1179.5,450.5C 1179.5,443.167 1179.5,435.833 1179.5,428.5C 1176.3,429.036 1173.64,428.369 1171.5,426.5 Z"/></g>
</svg>
