<svg width="171" height="64" viewBox="0 0 171 64" fill="none" xmlns="http://www.w3.org/2000/svg">
<g clip-path="url(#clip0_165_963)">
<path opacity="0.988" fill-rule="evenodd" clip-rule="evenodd" d="M83.4134 0.0707785C83.9308 -0.0373188 84.1441 0.151472 84.0534 0.63715C83.5316 0.850851 83.3182 0.662061 83.4134 0.0707785Z" fill="black"/>
<path opacity="0.98" fill-rule="evenodd" clip-rule="evenodd" d="M86.4 -0.0708008C86.4949 -0.0708008 86.5896 -0.0708008 86.6845 -0.0708008C87.0872 0.311271 87.0161 0.594456 86.4711 0.778757C86.0298 0.550503 86.0061 0.267317 86.4 -0.0708008Z" fill="black"/>
<path opacity="0.977" fill-rule="evenodd" clip-rule="evenodd" d="M80.8533 0.35397C81.1355 0.351704 81.2777 0.493297 81.28 0.778748C81.2894 1.02886 81.1707 1.17045 80.9244 1.20353C80.4851 0.962199 80.4615 0.679013 80.8533 0.35397Z" fill="black"/>
<path opacity="0.992" fill-rule="evenodd" clip-rule="evenodd" d="M89.1023 0.354004C89.6499 0.382424 89.7921 0.642012 89.529 1.13276C88.9654 1.14942 88.8232 0.889838 89.1023 0.354004Z" fill="black"/>
<path opacity="0.997" fill-rule="evenodd" clip-rule="evenodd" d="M78.009 1.20353C78.5264 1.09543 78.7397 1.28422 78.649 1.7699C77.9977 2.04152 77.7844 1.85273 78.009 1.20353Z" fill="black"/>
<path opacity="0.978" fill-rule="evenodd" clip-rule="evenodd" d="M91.6621 1.20351C92.256 1.10874 92.4456 1.32113 92.231 1.84068C92.0471 1.91006 91.8574 1.93366 91.6621 1.91147C91.6621 1.67548 91.6621 1.4395 91.6621 1.20351Z" fill="black"/>
<path opacity="0.995" fill-rule="evenodd" clip-rule="evenodd" d="M94.2222 2.33626C94.8161 2.24149 95.0057 2.45388 94.7911 2.97343C94.6072 3.04281 94.4174 3.06641 94.2222 3.04422C94.2222 2.80823 94.2222 2.57225 94.2222 2.33626Z" fill="black"/>
<path opacity="0.986" fill-rule="evenodd" clip-rule="evenodd" d="M75.4488 2.47791C75.6859 2.47791 75.9228 2.47791 76.1599 2.47791C76.255 3.06918 76.0417 3.25798 75.5199 3.04428C75.4502 2.86117 75.4265 2.67237 75.4488 2.47791Z" fill="black"/>
<path opacity="0.993" fill-rule="evenodd" clip-rule="evenodd" d="M96.64 3.8938C96.8296 3.8938 97.0193 3.8938 97.2089 3.8938C97.2089 4.12979 97.2089 4.36577 97.2089 4.60176C96.5781 4.68355 96.3885 4.44755 96.64 3.8938Z" fill="black"/>
<path opacity="0.993" fill-rule="evenodd" clip-rule="evenodd" d="M73.1732 3.89382C73.6811 3.88076 73.8471 4.11673 73.671 4.60179C73.3641 4.76844 73.1508 4.67404 73.031 4.3186C73.0573 4.16516 73.1047 4.02357 73.1732 3.89382Z" fill="black"/>
<path opacity="0.992" fill-rule="evenodd" clip-rule="evenodd" d="M98.6311 5.73451C99.225 5.63975 99.4146 5.85214 99.2 6.37168C99.0161 6.44106 98.8264 6.46467 98.6311 6.44248C98.6311 6.20649 98.6311 5.97051 98.6311 5.73451Z" fill="black"/>
<path opacity="0.959" fill-rule="evenodd" clip-rule="evenodd" d="M71.04 5.8761C71.8256 5.88103 71.9205 6.11702 71.3244 6.58406C70.9192 6.45445 70.8245 6.21847 71.04 5.8761Z" fill="black"/>
<path opacity="0.947" fill-rule="evenodd" clip-rule="evenodd" d="M100.48 7.85844C100.997 7.75034 101.211 7.93913 101.12 8.42481C100.517 8.63448 100.303 8.44569 100.48 7.85844Z" fill="black"/>
<path opacity="0.957" fill-rule="evenodd" clip-rule="evenodd" d="M69.3333 7.8584C69.8329 7.93319 69.9751 8.19277 69.76 8.63716C69.1963 8.65382 69.0541 8.39423 69.3333 7.8584Z" fill="black"/>
<path opacity="0.985" fill-rule="evenodd" clip-rule="evenodd" d="M67.769 10.2655C68.2282 10.218 68.4416 10.4068 68.409 10.8319C67.7578 11.1035 67.5444 10.9147 67.769 10.2655Z" fill="black"/>
<path opacity="0.952" fill-rule="evenodd" clip-rule="evenodd" d="M101.902 10.2655C102.139 10.2655 102.376 10.2655 102.613 10.2655C102.708 10.8568 102.495 11.0456 101.973 10.8319C101.904 10.6488 101.88 10.46 101.902 10.2655Z" fill="black"/>
<path opacity="0.957" fill-rule="evenodd" clip-rule="evenodd" d="M103.04 12.8141C103.277 12.8141 103.514 12.8141 103.751 12.8141C103.846 13.4054 103.633 13.5942 103.111 13.3805C103.042 13.1974 103.018 13.0086 103.04 12.8141Z" fill="black"/>
<path opacity="0.998" fill-rule="evenodd" clip-rule="evenodd" d="M66.7734 12.8141C67.4731 12.9865 67.5205 13.2697 66.9156 13.6637C66.4214 13.4394 66.374 13.1562 66.7734 12.8141Z" fill="black"/>
<path opacity="0.992" fill-rule="evenodd" clip-rule="evenodd" d="M94.9333 19.1858C95.0201 19.0597 95.0675 18.9181 95.0756 18.761C95.9684 19.3006 96.8691 19.8434 97.7778 20.3894C98.3643 21.1082 98.8621 21.887 99.2711 22.7256C100.385 21.2389 101.499 19.7522 102.613 18.2655C103.409 17.9544 104.214 17.6712 105.031 17.4159C106.212 16.0985 107.444 14.8242 108.729 13.5929C108.871 13.4985 109.013 13.4985 109.156 13.5929C110.127 14.7493 111.099 15.9055 112.071 17.0619C112.913 18.5023 113.719 19.9654 114.489 21.4513C116.358 23.1835 118.255 24.8827 120.178 26.5486C120.747 27.9646 121.316 29.3805 121.884 30.7964C123.319 32.3187 124.647 33.9234 125.867 35.6106C125.935 35.7448 125.959 35.8864 125.938 36.0354C125.622 36.081 125.361 35.9865 125.156 35.7522C123.93 34.1067 122.65 32.5019 121.316 30.938C120.794 29.6165 120.273 28.2949 119.751 26.9734C117.855 25.2743 115.958 23.5752 114.062 21.8761C113.304 20.4602 112.545 19.0442 111.787 17.6283C110.838 16.4955 109.89 15.3628 108.942 14.2301C108.473 14.5213 108.497 14.6629 109.013 14.6548C109.013 14.8436 109.013 15.0325 109.013 15.2212C108.386 15.1023 107.865 15.2675 107.449 15.7168C107.968 15.7874 108.49 15.8109 109.013 15.7876C109.013 15.9763 109.013 16.1652 109.013 16.354C108.253 16.3305 107.495 16.3541 106.738 16.4248C106.596 16.5663 106.453 16.7079 106.311 16.8495C107.211 16.9203 108.111 16.9438 109.013 16.9203C109.013 17.1091 109.013 17.298 109.013 17.4867C107.875 17.4632 106.737 17.4867 105.6 17.5575C105.451 17.7536 105.261 17.8952 105.031 17.9823C106.125 18.0062 107.215 18.077 108.302 18.1947C108.234 18.3331 108.14 18.4511 108.018 18.5486C106.358 18.5958 104.699 18.6431 103.04 18.6902C102.918 18.7878 102.823 18.9057 102.756 19.0442C104.13 19.1387 105.505 19.233 106.88 19.3274C106.812 19.4659 106.717 19.5838 106.596 19.6814C105.126 19.7285 103.656 19.7758 102.187 19.823C102.065 19.9205 101.97 20.0385 101.902 20.177C103.087 20.2714 104.273 20.3657 105.458 20.4602C105.39 20.5986 105.295 20.7166 105.173 20.8141C103.893 20.8613 102.613 20.9086 101.333 20.9557C101.211 21.0533 101.117 21.1712 101.049 21.3097C102.469 21.4275 103.891 21.4983 105.316 21.5221C105.673 21.5753 106.004 21.6934 106.311 21.8761C104.367 21.9705 102.424 22.0648 100.48 22.1593C100.412 22.2977 100.317 22.4157 100.196 22.5132C103.182 22.5604 106.169 22.6077 109.156 22.6548C109.516 22.7425 109.847 22.8841 110.151 23.0796C106.643 23.1504 103.135 23.1741 99.6267 23.1504C99.6025 23.3376 99.6499 23.5028 99.7689 23.646C103.798 23.7168 107.828 23.7404 111.858 23.7168C111.858 23.9055 111.858 24.0944 111.858 24.2832C107.97 24.2595 104.083 24.2832 100.196 24.354C100.317 24.4515 100.412 24.5695 100.48 24.7079C104.129 24.8495 107.78 24.8967 111.431 24.8495C111.431 25.0383 111.431 25.2272 111.431 25.4159C107.969 25.3688 104.508 25.4159 101.049 25.5575C101.117 25.696 101.211 25.8139 101.333 25.9115C104.557 25.9823 107.78 26.0059 111.004 25.9823C111.029 26.1695 110.981 26.3347 110.862 26.4778C107.828 26.525 104.794 26.5723 101.76 26.6194C101.882 26.717 101.977 26.8349 102.044 26.9734C104.887 27.115 107.732 27.1622 110.578 27.115C110.602 27.3022 110.555 27.4674 110.436 27.6106C107.828 27.6577 105.221 27.705 102.613 27.7522C102.708 27.8938 102.803 28.0354 102.898 28.177C105.505 28.2241 108.113 28.2714 110.72 28.3186C110.842 28.4161 110.937 28.5341 111.004 28.6725C108.492 28.767 105.979 28.8613 103.467 28.9557C103.535 29.0942 103.629 29.2122 103.751 29.3097C106.407 29.3334 109.062 29.4042 111.716 29.5221C111.763 29.6165 111.81 29.7108 111.858 29.8053C109.25 29.8997 106.643 29.994 104.036 30.0885C104.083 30.1829 104.13 30.2772 104.178 30.3717C106.974 30.4896 109.771 30.5604 112.569 30.584C112.691 30.6816 112.786 30.7995 112.853 30.938C110.058 31.0796 107.261 31.1268 104.462 31.0796C104.438 31.2668 104.485 31.432 104.604 31.5752C107.354 31.646 110.103 31.6696 112.853 31.646C112.853 31.8347 112.853 32.0236 112.853 32.2124C110.151 32.1887 107.448 32.2124 104.747 32.2832C104.866 32.4263 104.913 32.5916 104.889 32.7787C107.544 32.7787 110.198 32.7787 112.853 32.7787C112.853 32.9675 112.853 33.1564 112.853 33.3451C110.339 33.298 107.826 33.3451 105.316 33.4867C105.431 33.6728 105.573 33.838 105.742 33.9823C108.112 34.0531 110.483 34.0767 112.853 34.0531C112.853 34.1947 112.853 34.3363 112.853 34.4779C110.577 34.4542 108.302 34.4779 106.027 34.5486C106.203 34.712 106.346 34.9009 106.453 35.115C108.586 35.1858 110.719 35.2095 112.853 35.1858C112.878 35.373 112.83 35.5382 112.711 35.6814C110.815 35.7285 108.918 35.7758 107.022 35.823C107.216 36.0473 107.311 36.3069 107.307 36.6017C107.073 36.632 106.86 36.5848 106.667 36.4602C106.105 35.5711 105.489 34.7215 104.818 33.9115C104.221 32.4594 103.652 30.9964 103.111 29.5221C101.09 26.8232 99.2644 23.9913 97.6356 21.0265C96.7007 20.4447 95.8001 19.8312 94.9333 19.1858Z" fill="black"/>
<path opacity="0.986" fill-rule="evenodd" clip-rule="evenodd" d="M103.893 15.5044C104.083 15.5044 104.273 15.5044 104.462 15.5044C104.532 15.851 104.413 16.087 104.107 16.2124C103.735 16.0708 103.664 15.8347 103.893 15.5044Z" fill="black"/>
<path opacity="0.986" fill-rule="evenodd" clip-rule="evenodd" d="M66.0622 15.5044C66.7302 15.6989 66.7777 15.9821 66.2044 16.354C65.7102 16.1297 65.6628 15.8465 66.0622 15.5044Z" fill="black"/>
<path opacity="0.988" fill-rule="evenodd" clip-rule="evenodd" d="M95.0755 18.7611C95.0674 18.9181 95.02 19.0597 94.9333 19.1859C93.905 18.6359 92.9095 18.0224 91.9466 17.3452C91.449 15.458 90.9512 13.5701 90.4533 11.6814C89.0997 10.6297 87.7722 9.54418 86.4711 8.42481C86.1145 8.60359 85.8063 8.83959 85.5466 9.13277C85.9174 9.24865 86.2967 9.31945 86.6844 9.34516C86.8034 9.48835 86.8508 9.65353 86.8266 9.84073C86.3029 9.81733 85.7816 9.84093 85.2622 9.91153C85.1972 9.97015 85.1497 10.0409 85.1199 10.1239C85.7837 10.2183 86.4473 10.3127 87.111 10.4071C87.1584 10.5015 87.2059 10.5959 87.2533 10.6903C86.3999 10.7847 85.5466 10.8791 84.6933 10.9735C84.6459 11.0679 84.5984 11.1623 84.551 11.2567C85.2622 11.3511 85.9733 11.4454 86.6844 11.5398C86.6165 11.6783 86.5218 11.7963 86.3999 11.8938C85.6888 11.941 84.9777 11.9882 84.2666 12.0354C84.1717 12.177 84.077 12.3186 83.9822 12.4602C84.5967 12.5309 85.213 12.5545 85.8311 12.531C85.8552 12.7182 85.8079 12.8834 85.6888 13.0266C84.7881 13.0738 83.8873 13.121 82.9866 13.1682C82.5963 13.2819 82.217 13.4235 81.8488 13.5929C82.9422 13.6168 84.0326 13.6876 85.1199 13.8053C85.0902 13.8883 85.0427 13.9591 84.9777 14.0177C83.6029 14.0649 82.2281 14.1121 80.8533 14.1593C80.7314 14.2569 80.6367 14.3748 80.5688 14.5133C81.8453 14.6546 83.1253 14.7019 84.4088 14.6549C84.433 14.8421 84.3856 15.0073 84.2666 15.1505C82.8097 15.1758 81.3638 15.2466 79.9288 15.3629C79.8756 15.4926 79.8045 15.6106 79.7155 15.7168C81.0454 15.7406 82.3728 15.8114 83.6977 15.9292C83.6299 16.0677 83.5352 16.1857 83.4133 16.2832C82.0384 16.3304 80.6637 16.3777 79.2888 16.4248C79.1466 16.5664 79.0044 16.708 78.8622 16.8496C80.1887 16.9204 81.5162 16.9439 82.8444 16.9204C82.8686 17.1076 82.8212 17.2728 82.7022 17.416C81.2799 17.4631 79.8577 17.5104 78.4355 17.5575C78.3406 17.6991 78.2459 17.8407 78.1511 17.9823C80.3317 18.0295 82.5126 18.0768 84.6933 18.1239C84.86 18.1832 85.0022 18.2775 85.1199 18.4071C82.6548 18.4543 80.1895 18.5015 77.7244 18.5487C77.6295 18.6903 77.5348 18.8319 77.4399 18.9735C80.6162 19.0206 83.7926 19.0679 86.9688 19.1151C87.242 19.166 87.4791 19.2841 87.6799 19.4691C84.1254 19.587 80.5698 19.6578 77.0133 19.6814C76.8914 19.779 76.7967 19.8969 76.7288 20.0354C80.9955 20.1299 85.2622 20.2242 89.5288 20.3186C89.5762 20.4131 89.6237 20.5074 89.6711 20.6018C85.1673 20.6962 80.6637 20.7905 76.1599 20.885C76.0921 21.0235 75.9974 21.1414 75.8755 21.239C80.6169 21.2626 85.3577 21.3334 90.0977 21.4514C90.1451 21.5458 90.1926 21.6401 90.2399 21.7345C85.3102 21.8525 80.3798 21.9233 75.4488 21.9469C75.3838 22.0055 75.3363 22.0763 75.3066 22.1593C80.4266 22.2538 85.5466 22.3481 90.6666 22.4425C90.714 22.5369 90.7615 22.6312 90.8088 22.7257C85.4998 22.8436 80.1902 22.9144 74.8799 22.9381C74.7581 23.0356 74.6633 23.1536 74.5955 23.2921C80.1416 23.41 85.6883 23.4808 91.2355 23.5045C91.3545 23.6476 91.4019 23.8128 91.3777 24C85.6412 23.9764 79.9049 24 74.1688 24.0708C74.0266 24.2124 73.8844 24.354 73.7422 24.4956C79.7629 24.5428 85.7837 24.59 91.8044 24.6372C91.9234 24.7803 91.9708 24.9456 91.9466 25.1328C85.5938 25.1091 79.2412 25.1328 72.8888 25.2036C72.7466 25.3452 72.6044 25.4868 72.4622 25.6283C79.1472 25.652 85.8316 25.7228 92.5155 25.8407C92.6778 25.9717 92.6778 26.0898 92.5155 26.1947C85.5466 26.2419 78.5777 26.2892 71.6088 26.3363C71.4421 26.3956 71.2999 26.4899 71.1822 26.6195C78.0568 26.6431 84.9308 26.7139 91.8044 26.8319C91.7747 26.9149 91.7272 26.9857 91.6622 27.0443C84.5593 27.2312 77.4482 27.3255 70.3288 27.3275C70.234 27.4691 70.1392 27.6106 70.0444 27.7522C76.3027 27.7759 82.5605 27.8467 88.8177 27.9646C88.6169 28.1495 88.3798 28.2676 88.1066 28.3186C81.9905 28.3423 75.8749 28.4131 69.7599 28.531C69.7126 28.6254 69.6651 28.7197 69.6177 28.8142C75.0222 28.9086 80.4266 29.0029 85.8311 29.0974C85.6016 29.2286 85.3647 29.3467 85.1199 29.4514C79.8096 29.475 74.5001 29.5458 69.191 29.6637C69.1437 29.7582 69.0962 29.8525 69.0488 29.9469C74.1681 30.0649 79.2881 30.1357 84.4088 30.1593C84.4738 30.2179 84.5213 30.2887 84.551 30.3717C79.2895 30.4897 74.0273 30.5605 68.7644 30.5841C68.6695 30.7257 68.5748 30.8673 68.4799 31.0089C74.2162 31.056 79.9526 31.1033 85.6888 31.1505C85.8107 31.248 85.9054 31.366 85.9733 31.5045C79.9999 31.5989 74.0266 31.6932 68.0533 31.7876C67.9854 31.9261 67.8907 32.0441 67.7688 32.1416C74.2162 32.1888 80.6637 32.2361 87.111 32.2832C87.3205 32.3837 87.4154 32.5488 87.3955 32.7788C80.663 32.7316 73.9312 32.7788 67.1999 32.9204C67.1702 33.0034 67.1227 33.0742 67.0577 33.1328C74.1688 33.1799 81.2799 33.2272 88.391 33.2744C88.5333 33.3923 88.6755 33.5104 88.8177 33.6283C81.3748 33.7228 73.9317 33.8171 66.4888 33.9115C66.421 34.05 66.3263 34.168 66.2044 34.2655C74.074 34.3127 81.9437 34.36 89.8133 34.4071C90.0138 34.4592 90.156 34.5772 90.2399 34.7611C82.0384 34.8555 73.837 34.9498 65.6355 35.0443C65.5677 35.1828 65.4729 35.3007 65.351 35.3983C73.9792 35.4454 82.6073 35.4927 91.2355 35.5399C91.436 35.592 91.5783 35.7099 91.6622 35.8938C82.7499 36.0118 73.8373 36.0826 64.9244 36.1062C64.663 36.4323 64.331 36.5266 63.9288 36.3894C64.2133 36.0118 64.4977 35.6343 64.7822 35.2567C58.3822 35.1622 51.9822 35.1622 45.5822 35.2567C45.2258 35.6746 44.9176 35.6983 44.6577 35.3275C46.508 33.5754 48.0489 31.5931 49.2799 29.3806C50.2035 28.7083 51.1517 28.0711 52.1244 27.4691C53.2963 26.1384 54.4341 24.7932 55.5377 23.4337C55.9778 23.4199 56.3569 23.2783 56.6755 23.0089C57.8383 23.1033 59.0236 23.1976 60.231 23.2921C60.2608 23.375 60.3083 23.4458 60.3733 23.5045C58.9486 23.5282 57.5264 23.599 56.1066 23.7168C56.0388 23.8553 55.944 23.9733 55.8222 24.0708C57.4815 24.118 59.1406 24.1653 60.7999 24.2124C60.8649 24.271 60.9124 24.3418 60.9422 24.4248C59.0459 24.5192 57.1495 24.6135 55.2533 24.708C55.2235 24.791 55.176 24.8618 55.111 24.9204C57.197 24.9675 59.2829 25.0148 61.3688 25.062C61.4907 25.1595 61.5854 25.2775 61.6533 25.416C59.2843 25.5339 56.914 25.6047 54.5422 25.6283C54.4473 25.7228 54.3526 25.8171 54.2577 25.9115C56.8651 25.9587 59.4726 26.006 62.0799 26.0531C62.199 26.1963 62.2463 26.3615 62.2222 26.5487C59.3773 26.5251 56.5328 26.5487 53.6888 26.6195C53.6238 26.6781 53.5763 26.7489 53.5466 26.8319C56.627 26.9498 59.7085 27.0206 62.791 27.0443C62.9916 27.0964 63.1338 27.2143 63.2177 27.3983C59.8054 27.5162 56.392 27.587 52.9777 27.6106C52.8829 27.7051 52.7881 27.7994 52.6933 27.8938C56.533 27.9646 60.373 27.9883 64.2133 27.9646C64.2374 28.1518 64.1901 28.3171 64.071 28.4602C59.8992 28.5074 55.7273 28.5546 51.5555 28.6018C51.3888 28.6611 51.2466 28.7554 51.1288 28.885C55.2541 28.9086 59.3786 28.9794 63.5022 29.0974C63.4548 29.1918 63.4073 29.2861 63.3599 29.3806C58.9518 29.4985 54.5429 29.5693 50.1333 29.5929C49.9666 29.6523 49.8244 29.7466 49.7066 29.8761C54.1155 29.9233 58.5244 29.9706 62.9333 30.0177C62.8683 30.0763 62.8208 30.1471 62.791 30.2301C58.3355 30.3481 53.8793 30.4189 49.4222 30.4425C49.3572 30.5011 49.3097 30.5719 49.2799 30.6549C53.594 30.7493 57.9081 30.8436 62.2222 30.9381C62.1748 31.0325 62.1273 31.1268 62.0799 31.2213C57.6718 31.3392 53.2629 31.41 48.8533 31.4337C48.7584 31.5281 48.6637 31.6224 48.5688 31.7168C52.8827 31.7876 57.1967 31.8113 61.511 31.7876C61.5352 31.9748 61.4879 32.1401 61.3688 32.2832C57.0073 32.3304 52.6459 32.3777 48.2844 32.4248C48.1895 32.5192 48.0948 32.6135 47.9999 32.708C52.6933 32.7551 57.3866 32.8024 62.0799 32.8496C62.2936 32.9321 62.4831 33.0501 62.6488 33.2036C57.5295 33.3215 52.4095 33.3923 47.2888 33.416C47.2238 33.4746 47.1763 33.5454 47.1466 33.6283C52.7874 33.7463 58.429 33.8171 64.071 33.8407C64.2847 33.9233 64.4742 34.0412 64.6399 34.1947C58.5723 34.3127 52.5043 34.3835 46.4355 34.4071C46.3406 34.5015 46.2459 34.5958 46.151 34.6903C52.5037 34.7847 58.8562 34.7847 65.2088 34.6903C66.0384 33.5812 66.8681 32.472 67.6977 31.3629C68.4239 29.9642 69.1113 28.5483 69.7599 27.1151C70.4747 26.4503 71.1859 25.7896 71.8933 25.1328C69.738 23.105 67.6521 21.0046 65.6355 18.8319C65.0322 18.4623 64.4633 18.0612 63.9288 17.6283C64.0807 17.4961 64.2703 17.4488 64.4977 17.4868C65.0328 17.7576 65.5543 18.0643 66.0622 18.4071C68.1203 20.5977 70.2298 22.7452 72.391 24.8496C72.797 24.5525 73.1763 24.2222 73.5288 23.8584C75.7461 20.3397 78.069 16.8943 80.4977 13.5222C81.5214 13.1513 82.517 12.7266 83.4844 12.2478C84.2192 10.6903 84.954 9.13277 85.6888 7.57525C85.7837 7.52805 85.8784 7.48085 85.9733 7.43365C87.7139 8.66968 89.3968 9.99121 91.0222 11.3983C91.476 13.3 91.9738 15.1878 92.5155 17.062C93.4133 17.5812 94.2667 18.1476 95.0755 18.7611Z" fill="black"/>
<path opacity="0.992" fill-rule="evenodd" clip-rule="evenodd" d="M64.4978 17.4867C64.2704 17.4488 64.0808 17.4961 63.929 17.6283C63.5566 17.4237 63.2011 17.1878 62.8623 16.9204C62.7912 16.9912 62.7201 17.062 62.649 17.1328C62.7741 17.3248 62.8216 17.5372 62.7912 17.7699C62.476 17.7381 62.2389 17.856 62.0801 18.1239C62.3125 18.1939 62.5495 18.2174 62.7912 18.1947C62.8154 18.3819 62.768 18.5471 62.649 18.6903C62.2008 18.6886 61.8215 18.8302 61.5112 19.1151C61.8875 19.1854 62.2668 19.2091 62.649 19.1859C62.649 19.3746 62.649 19.5635 62.649 19.7522C62.119 19.7065 61.5975 19.7538 61.0845 19.8938C61.0548 19.9768 61.0073 20.0476 60.9423 20.1062C61.5092 20.1769 62.0781 20.2005 62.649 20.177C62.649 20.3658 62.649 20.5546 62.649 20.7434C61.3207 20.7199 59.9932 20.7434 58.6667 20.8142C58.5719 20.9086 58.4771 21.0029 58.3823 21.0974C59.7596 21.1212 61.1344 21.1919 62.5067 21.3098C62.4228 21.4937 62.2806 21.6116 62.0801 21.6637C60.6578 21.7109 59.2356 21.7582 57.8134 21.8053C57.7185 21.8998 57.6238 21.9941 57.529 22.0885C58.7169 22.1123 59.9022 22.1831 61.0845 22.3009C61.0006 22.4848 60.8584 22.6028 60.6578 22.6549C59.4252 22.702 58.1927 22.7493 56.9601 22.7965C56.8827 22.898 56.7878 22.9688 56.6756 23.0089C56.357 23.2783 55.9779 23.4199 55.5378 23.4336C56.4543 22.3893 57.3552 21.3273 58.2401 20.2478C59.052 20.0637 59.8342 19.8042 60.5867 19.469C61.2088 18.3953 61.8488 17.3334 62.5067 16.2832C63.2531 16.527 63.9169 16.9282 64.4978 17.4867Z" fill="black"/>
<path opacity="0.997" fill-rule="evenodd" clip-rule="evenodd" d="M84.4089 47.0797C84.889 47.1437 85.3631 47.238 85.8311 47.3628C85.9942 47.6835 86.018 48.0139 85.9022 48.354C84.9075 47.3182 83.8646 47.3182 82.7733 48.354C81.8095 50.4456 82.4257 51.8144 84.6222 52.4602C84.9067 52.3657 85.1911 52.2714 85.4756 52.177C85.5704 51.5635 85.5704 50.9498 85.4756 50.3363C85.3838 50.174 85.2654 50.0324 85.12 49.9115C85.594 49.7228 86.0682 49.7228 86.5422 49.9115C86.3969 50.0324 86.2784 50.174 86.1867 50.3363C86.1393 51.0914 86.0918 51.8467 86.0444 52.6018C82.7628 53.3456 81.3406 52.0712 81.7778 48.7788C82.3494 47.7281 83.2265 47.1618 84.4089 47.0797Z" fill="black"/>
<path opacity="0.997" fill-rule="evenodd" clip-rule="evenodd" d="M129.209 47.0797C131.689 47.3892 132.613 48.758 131.982 51.1858C131.119 52.6416 129.862 53.1371 128.213 52.6726C126.685 51.8387 126.188 50.588 126.72 48.9204C127.211 47.8397 128.041 47.2262 129.209 47.0797ZM129.209 47.5044C130.644 47.7774 131.402 48.6506 131.485 50.1239C131.291 51.8696 130.342 52.5776 128.64 52.2478C127.089 51.1507 126.828 49.8056 127.858 48.2124C128.271 47.8771 128.722 47.6411 129.209 47.5044Z" fill="black"/>
<path opacity="0.996" fill-rule="evenodd" clip-rule="evenodd" d="M155.947 47.0797C157.807 47.1623 158.802 48.1298 158.933 49.9823C158.565 52.2832 157.238 53.1799 154.951 52.6726C153.452 51.9295 152.906 50.726 153.316 49.062C153.806 47.8646 154.684 47.204 155.947 47.0797ZM155.804 47.5044C157.285 47.7045 158.091 48.5541 158.222 50.0531C158.057 51.3736 157.322 52.1759 156.018 52.4602C154.035 51.7228 153.466 50.4013 154.311 48.4956C154.695 47.9643 155.193 47.634 155.804 47.5044Z" fill="black"/>
<path opacity="0.997" fill-rule="evenodd" clip-rule="evenodd" d="M170.596 50.6195C170.596 50.9971 170.596 51.3746 170.596 51.7522C170.432 52.2216 170.099 52.5284 169.6 52.6726C168.832 52.7819 168.073 52.7347 167.324 52.531C167.142 52.1818 167.142 51.8278 167.324 51.469C167.553 52.0909 168.004 52.3741 168.676 52.3186C169.384 52.3213 169.788 51.9673 169.884 51.2566C169.865 50.9521 169.722 50.716 169.458 50.5487C168.647 50.2754 167.913 49.8741 167.253 49.3451C166.855 48.0167 167.353 47.2616 168.747 47.0797C169.173 47.1741 169.6 47.2684 170.027 47.3628C170.216 47.6932 170.216 48.0237 170.027 48.354C169.832 47.7811 169.428 47.4979 168.818 47.5044C167.663 47.8403 167.498 48.4303 168.32 49.2743C169.235 49.5024 169.993 49.9509 170.596 50.6195Z" fill="black"/>
<path opacity="0.993" fill-rule="evenodd" clip-rule="evenodd" d="M-0.0710449 47.2213C1.01933 47.2213 2.10969 47.2213 3.20007 47.2213C3.24258 47.5192 3.19517 47.8023 3.05784 48.0708C2.94594 47.9657 2.85112 47.8478 2.7734 47.7168C2.15891 47.6462 1.54262 47.6225 0.924511 47.646C0.924511 48.3068 0.924511 48.9675 0.924511 49.6283C1.40094 49.6517 1.87501 49.628 2.34673 49.5575C2.69239 49.0647 2.83461 49.1354 2.7734 49.7699C2.74969 49.9587 2.726 50.1476 2.70229 50.3363C2.63118 50.2655 2.56007 50.1947 2.48895 50.1239C1.96962 50.0533 1.44813 50.0297 0.924511 50.0531C0.924511 50.8082 0.924511 51.5635 0.924511 52.3186C1.5899 52.3421 2.25361 52.3185 2.91562 52.2478C3.09649 52.0627 3.23871 51.8503 3.34229 51.6106C3.48167 51.9768 3.52908 52.3544 3.48451 52.7434C2.29933 52.7434 1.11414 52.7434 -0.0710449 52.7434C-0.0710449 52.6489 -0.0710449 52.5546 -0.0710449 52.4602C0.117984 51.6871 0.212798 50.8612 0.213399 49.9823C0.212798 49.1034 0.117984 48.2775 -0.0710449 47.5044C-0.0710449 47.41 -0.0710449 47.3157 -0.0710449 47.2213Z" fill="black"/>
<path opacity="0.998" fill-rule="evenodd" clip-rule="evenodd" d="M5.19121 47.2213C5.53596 47.1777 5.86781 47.2249 6.18677 47.3629C7.06381 48.7316 7.94084 50.1003 8.81788 51.469C8.84159 50.8082 8.86528 50.1476 8.88899 49.4867C8.88124 48.7534 8.78643 48.0455 8.60455 47.3629C8.98381 47.1741 9.36306 47.1741 9.74232 47.3629C9.59702 47.4838 9.47849 47.6254 9.38677 47.7876C9.31567 49.4389 9.29198 51.0909 9.31566 52.7434C8.99958 52.789 8.73885 52.6945 8.53344 52.4602C7.64448 51.1152 6.79114 49.7464 5.97344 48.354C5.87862 49.6755 5.87862 50.9971 5.97344 52.3186C6.07191 52.3929 6.14302 52.4874 6.18677 52.6018C5.85492 52.7905 5.52306 52.7905 5.19121 52.6018C5.23496 52.4874 5.30607 52.3929 5.40455 52.3186C5.49937 50.7611 5.49937 49.2036 5.40455 47.646C5.25683 47.5407 5.18572 47.3991 5.19121 47.2213Z" fill="black"/>
<path opacity="0.999" fill-rule="evenodd" clip-rule="evenodd" d="M11.3068 47.2213C12.5868 47.2213 13.8668 47.2213 15.1468 47.2213C15.1906 47.5645 15.1431 47.8948 15.0045 48.2124C14.675 47.7041 14.2009 47.5153 13.5823 47.646C13.5586 49.2514 13.5823 50.8562 13.6534 52.4602C13.7245 52.531 13.7957 52.6018 13.8668 52.6726C13.4324 52.7888 13.0057 52.7653 12.5868 52.6018C12.6305 52.4874 12.7016 52.3929 12.8001 52.3186C12.8712 50.7618 12.8949 49.2043 12.8712 47.646C12.489 47.6228 12.1097 47.6465 11.7334 47.7168C11.6522 47.8874 11.5574 48.0527 11.449 48.2124C11.3104 47.8948 11.263 47.5645 11.3068 47.2213Z" fill="black"/>
<path opacity="0.994" fill-rule="evenodd" clip-rule="evenodd" d="M16.711 47.2213C17.8014 47.2213 18.8917 47.2213 19.9821 47.2213C20.0246 47.5192 19.9773 47.8023 19.8399 48.0708C19.728 47.9657 19.6332 47.8478 19.5554 47.7168C18.9409 47.6462 18.3246 47.6225 17.7065 47.646C17.7065 48.3068 17.7065 48.9675 17.7065 49.6283C18.1358 49.6517 18.5624 49.628 18.9866 49.5575C19.1495 49.4662 19.2918 49.3483 19.4132 49.2036C19.6028 49.5812 19.6028 49.9587 19.4132 50.3363C18.8812 50.077 18.3123 49.9827 17.7065 50.0531C17.7065 50.8082 17.7065 51.5635 17.7065 52.3186C18.3246 52.3421 18.9409 52.3185 19.5554 52.2478C19.8056 52.1051 19.9716 51.8927 20.0532 51.6106C20.1239 51.9853 20.1477 52.3629 20.1243 52.7434C18.9826 52.7902 17.8448 52.7431 16.711 52.6018C16.7548 52.4874 16.8259 52.3929 16.9243 52.3186C17.0192 50.7611 17.0192 49.2036 16.9243 47.646C16.7766 47.5407 16.7054 47.3991 16.711 47.2213Z" fill="black"/>
<path opacity="0.998" fill-rule="evenodd" clip-rule="evenodd" d="M21.9734 47.2213C22.6861 47.1977 23.3972 47.2214 24.1068 47.292C25.3663 47.8242 25.5559 48.6266 24.6757 49.6991C24.45 49.8212 24.2129 49.9156 23.9646 49.9823C24.5508 50.9191 25.2144 51.7923 25.9557 52.6018C25.6825 52.7633 25.398 52.787 25.1023 52.6726C24.3868 51.8375 23.7231 50.9644 23.1112 50.0531C22.9458 50.8513 22.9221 51.6537 23.0401 52.4602C23.1112 52.531 23.1823 52.6018 23.2534 52.6726C22.8191 52.7888 22.3924 52.7653 21.9734 52.6018C22.0172 52.4874 22.0884 52.3929 22.1868 52.3186C22.2816 50.7611 22.2816 49.2036 22.1868 47.646C22.039 47.5407 21.9679 47.3991 21.9734 47.2213ZM22.969 47.646C23.7495 47.5483 24.2709 47.855 24.5334 48.5664C24.3077 49.3403 23.7862 49.6943 22.969 49.6283C22.969 48.9675 22.969 48.3068 22.969 47.646Z" fill="black"/>
<path opacity="0.998" fill-rule="evenodd" clip-rule="evenodd" d="M27.52 47.3628C28.3577 47.1754 29.211 47.199 30.08 47.4336C31.0996 48.4712 30.9574 49.3208 29.6534 49.9823C29.2812 50.0987 28.9019 50.1695 28.5156 50.1947C28.492 50.8572 28.5157 51.5179 28.5867 52.177C28.6528 52.3796 28.7714 52.5447 28.9422 52.6726C28.4682 52.767 27.994 52.767 27.52 52.6726C27.6908 52.5447 27.8094 52.3796 27.8756 52.177C27.9704 50.7139 27.9704 49.2507 27.8756 47.7876C27.822 47.5834 27.7035 47.4419 27.52 47.3628ZM28.5156 47.646C29.3328 47.58 29.8543 47.934 30.08 48.708C29.8099 49.4101 29.2884 49.7641 28.5156 49.7699C28.5156 49.062 28.5156 48.354 28.5156 47.646Z" fill="black"/>
<path opacity="0.999" fill-rule="evenodd" clip-rule="evenodd" d="M32.4978 47.2213C33.2578 47.1977 34.0163 47.2214 34.7734 47.292C35.4796 47.4225 35.8589 47.8472 35.9111 48.5664C35.8335 49.3517 35.4068 49.8236 34.6311 49.9823C35.2101 50.9245 35.8739 51.7975 36.6222 52.6018C36.2327 52.7812 35.8534 52.7577 35.4845 52.531C34.9806 51.74 34.4592 50.9613 33.92 50.1947C33.8027 50.0693 33.6605 50.0221 33.4934 50.0531C33.4697 50.7626 33.4935 51.4706 33.5645 52.177C33.6306 52.3796 33.7492 52.5447 33.92 52.6726C33.446 52.767 32.9718 52.767 32.4978 52.6726C32.6686 52.5447 32.7872 52.3796 32.8534 52.177C32.9482 50.7139 32.9482 49.2507 32.8534 47.7876C32.699 47.6126 32.5806 47.4239 32.4978 47.2213ZM33.4934 47.646C34.3261 47.5177 34.895 47.8246 35.2 48.5664C34.9317 49.3849 34.3628 49.7389 33.4934 49.6283C33.4934 48.9675 33.4934 48.3068 33.4934 47.646Z" fill="black"/>
<path opacity="0.997" fill-rule="evenodd" clip-rule="evenodd" d="M38.3289 47.2212C38.7658 47.1764 39.1925 47.2235 39.6089 47.3628C39.4253 48.2117 39.3306 49.0848 39.3245 49.9823C39.3306 50.8799 39.4253 51.7529 39.6089 52.6018C39.1822 52.7905 38.7556 52.7905 38.3289 52.6018C38.3727 52.4874 38.4438 52.3929 38.5422 52.3186C38.6371 50.7611 38.6371 49.2036 38.5422 47.646C38.3945 47.5407 38.3234 47.3991 38.3289 47.2212Z" fill="black"/>
<path opacity="0.997" fill-rule="evenodd" clip-rule="evenodd" d="M43.0222 47.0797C43.4426 47.1698 43.8693 47.2406 44.3022 47.292C44.4589 47.632 44.4827 47.986 44.3733 48.354C44.1685 47.7582 43.7418 47.475 43.0933 47.5044C42.3303 47.6964 42.0458 48.1685 42.24 48.9204C42.876 49.3668 43.5635 49.7208 44.3022 49.9823C45.2504 50.8319 45.2504 51.6814 44.3022 52.531C43.4095 52.7836 42.5086 52.8072 41.6 52.6018C41.5766 52.2213 41.6004 51.8437 41.6711 51.469C41.856 52.1044 42.2826 52.3875 42.9511 52.3186C43.6997 52.3832 44.1502 52.0528 44.3022 51.3274C44.1958 51.068 44.0536 50.832 43.8755 50.6195C43.328 50.3234 42.7591 50.0639 42.1689 49.8407C41.276 49.0981 41.2286 48.2957 42.0266 47.4336C42.3718 47.3059 42.7036 47.1878 43.0222 47.0797Z" fill="black"/>
<path opacity="0.993" fill-rule="evenodd" clip-rule="evenodd" d="M46.72 47.2213C47.8577 47.2213 48.9955 47.2213 50.1333 47.2213C50.1758 47.5192 50.1285 47.8023 49.9911 48.0708C49.8281 47.9795 49.6859 47.8615 49.5644 47.7168C48.9499 47.6462 48.3336 47.6225 47.7155 47.646C47.7155 48.3068 47.7155 48.9675 47.7155 49.6283C48.192 49.6517 48.666 49.628 49.1377 49.5575C49.3007 49.4662 49.443 49.3483 49.5644 49.2036C49.754 49.5812 49.754 49.9587 49.5644 50.3363C48.9839 50.0749 48.3676 49.9805 47.7155 50.0531C47.7155 50.8082 47.7155 51.5635 47.7155 52.3186C48.381 52.3421 49.0446 52.3185 49.7066 52.2478C49.8875 52.0627 50.0298 51.8503 50.1333 51.6106C50.2727 51.9768 50.32 52.3544 50.2755 52.7434C49.0894 52.7669 47.9043 52.7434 46.72 52.6726C46.8908 52.5447 47.0094 52.3796 47.0755 52.177C47.1704 50.7139 47.1704 49.2507 47.0755 47.7876C46.9212 47.6126 46.8027 47.4239 46.72 47.2213Z" fill="black"/>
<path opacity="0.998" fill-rule="evenodd" clip-rule="evenodd" d="M55.3955 47.2212C55.768 47.1833 56.1235 47.2305 56.4622 47.3628C57.0588 48.7201 57.6277 50.0888 58.1688 51.469C58.8218 50.1214 59.438 48.7526 60.0177 47.3628C60.3685 47.182 60.724 47.182 61.0844 47.3628C61.0406 47.4772 60.9695 47.5717 60.8711 47.646C60.7762 49.2035 60.7762 50.7611 60.8711 52.3186C60.9695 52.3929 61.0406 52.4874 61.0844 52.6018C60.6577 52.7905 60.2311 52.7905 59.8044 52.6018C59.9863 51.9192 60.0812 51.2112 60.0888 50.4779C60.0651 49.8171 60.0415 49.1564 60.0177 48.4956C59.3907 49.9799 58.7269 51.443 58.0266 52.885C57.4104 51.469 56.794 50.0531 56.1777 48.6372C56.0829 49.8644 56.0829 51.0914 56.1777 52.3186C56.2761 52.3929 56.3473 52.4874 56.3911 52.6018C56.0593 52.7905 55.7273 52.7905 55.3955 52.6018C55.5791 51.7529 55.6738 50.8799 55.68 49.9823C55.6684 49.0382 55.5736 48.1178 55.3955 47.2212Z" fill="black"/>
<path opacity="0.997" fill-rule="evenodd" clip-rule="evenodd" d="M65.0666 47.0797C65.7723 48.6421 66.4123 50.2468 66.9866 51.8938C67.0824 52.1794 67.2484 52.4153 67.4843 52.6018C67.0577 52.7905 66.631 52.7905 66.2043 52.6018C66.2656 52.4895 66.3131 52.3714 66.3466 52.2478C66.1135 51.6654 65.9001 51.0755 65.7066 50.4779C65.2325 50.2891 64.7584 50.2891 64.2843 50.4779C64.099 51.0787 63.8857 51.6687 63.6443 52.2478C63.6778 52.3714 63.7253 52.4895 63.7866 52.6018C63.4548 52.7905 63.1228 52.7905 62.791 52.6018C63.027 52.4153 63.1929 52.1794 63.2888 51.8938C63.8964 50.2913 64.489 48.6864 65.0666 47.0797ZM64.9243 48.6372C65.1526 49.0081 65.3422 49.4093 65.4932 49.8407C65.1614 49.9352 64.8295 49.9352 64.4977 49.8407C64.6823 49.4546 64.8245 49.0535 64.9243 48.6372Z" fill="black"/>
<path opacity="0.998" fill-rule="evenodd" clip-rule="evenodd" d="M69.0488 47.2212C69.5018 47.1533 69.9049 47.2476 70.2577 47.5044C71.1111 48.8259 71.9644 50.1475 72.8177 51.469C72.8415 50.8082 72.8651 50.1475 72.8888 49.4867C72.8811 48.7534 72.7863 48.0455 72.6044 47.3628C72.9362 47.1741 73.2681 47.1741 73.5999 47.3628C73.5561 47.4772 73.485 47.5717 73.3866 47.646C73.3155 49.3444 73.2917 51.0435 73.3155 52.7434C73.0612 52.7837 72.8241 52.7366 72.6044 52.6018C71.7273 51.233 70.8504 49.8644 69.9733 48.4956C69.9495 49.1564 69.9259 49.8171 69.9022 50.4779C69.9098 51.2112 70.0047 51.9191 70.1866 52.6018C69.8548 52.7905 69.5229 52.7905 69.1911 52.6018C69.2349 52.4874 69.306 52.3929 69.4044 52.3186C69.4992 50.7611 69.4992 49.2035 69.4044 47.646C69.2029 47.5642 69.0844 47.4226 69.0488 47.2212Z" fill="black"/>
<path opacity="0.997" fill-rule="evenodd" clip-rule="evenodd" d="M77.5822 47.0797C78.3354 48.7839 79.0228 50.5303 79.6444 52.3186C79.776 52.396 79.8944 52.4903 80 52.6018C79.5733 52.7905 79.1466 52.7905 78.72 52.6018C78.7139 51.8706 78.5241 51.1626 78.1511 50.4779C77.6947 50.2957 77.2444 50.2957 76.8 50.4779C76.6064 51.0755 76.3931 51.6654 76.16 52.2478C76.1934 52.3714 76.2409 52.4895 76.3022 52.6018C75.9704 52.7905 75.6384 52.7905 75.3066 52.6018C75.5426 52.4153 75.7086 52.1794 75.8044 51.8938C76.412 50.2913 77.0046 48.6864 77.5822 47.0797ZM77.44 48.6372C77.6682 49.0081 77.8578 49.4093 78.0089 49.8407C77.6672 49.956 77.3354 49.9323 77.0133 49.7699C77.2124 49.411 77.3546 49.0334 77.44 48.6372Z" fill="black"/>
<path opacity="0.993" fill-rule="evenodd" clip-rule="evenodd" d="M88.2488 47.2213C89.3392 47.2213 90.4295 47.2213 91.5199 47.2213C91.5429 47.5083 91.5192 47.7914 91.4488 48.0708C91.3303 47.9529 91.2117 47.8348 91.0932 47.7168C90.4787 47.6462 89.8624 47.6225 89.2443 47.646C89.2443 48.3068 89.2443 48.9675 89.2443 49.6283C89.9357 49.7361 90.5521 49.5945 91.0932 49.2036C91.2828 49.5812 91.2828 49.9587 91.0932 50.3363C90.5162 50.0731 89.8998 49.9786 89.2443 50.0531C89.2443 50.8082 89.2443 51.5635 89.2443 52.3186C89.9098 52.3421 90.5734 52.3185 91.2354 52.2478C91.4164 52.0627 91.5586 51.8503 91.6621 51.6106C91.8015 51.9768 91.8489 52.3544 91.8043 52.7434C90.6182 52.7669 89.4331 52.7434 88.2488 52.6726C88.3199 52.6018 88.391 52.531 88.4621 52.4602C88.6156 50.6889 88.5445 48.9426 88.2488 47.2213Z" fill="black"/>
<path opacity="0.998" fill-rule="evenodd" clip-rule="evenodd" d="M93.5112 47.2212C93.8837 47.1833 94.2393 47.2305 94.5779 47.3628C95.1745 48.7201 95.7434 50.0888 96.2846 51.469C96.9375 50.1214 97.5538 48.7526 98.1335 47.3628C98.4842 47.182 98.8397 47.182 99.2001 47.3628C99.1563 47.4772 99.0852 47.5717 98.9868 47.646C98.8919 49.2035 98.8919 50.7611 98.9868 52.3186C99.0852 52.3929 99.1563 52.4874 99.2001 52.6018C98.7735 52.7905 98.3468 52.7905 97.9201 52.6018C98.102 51.9192 98.1969 51.2112 98.2046 50.4779C98.1808 49.8171 98.1572 49.1564 98.1335 48.4956C97.5064 49.9799 96.8426 51.443 96.1423 52.885C95.5261 51.469 94.9097 50.0531 94.2935 48.6372C94.1986 49.8644 94.1986 51.0914 94.2935 52.3186C94.3919 52.3929 94.463 52.4874 94.5068 52.6018C94.175 52.7905 93.843 52.7905 93.5112 52.6018C93.6948 51.7529 93.7896 50.8799 93.7957 49.9823C93.7842 49.0382 93.6893 48.1178 93.5112 47.2212Z" fill="black"/>
<path opacity="0.993" fill-rule="evenodd" clip-rule="evenodd" d="M101.191 47.2213C102.282 47.2213 103.372 47.2213 104.462 47.2213C104.505 47.5192 104.457 47.8023 104.32 48.0708C104.208 47.9657 104.113 47.8478 104.036 47.7168C103.421 47.6462 102.805 47.6225 102.187 47.646C102.187 48.3068 102.187 48.9675 102.187 49.6283C102.616 49.6517 103.043 49.628 103.467 49.5575C103.63 49.4662 103.772 49.3483 103.893 49.2036C104.083 49.5812 104.083 49.9587 103.893 50.3363C103.361 50.077 102.792 49.9827 102.187 50.0531C102.187 50.8082 102.187 51.5635 102.187 52.3186C102.805 52.3421 103.421 52.3185 104.036 52.2478C104.256 52.0759 104.422 51.8635 104.533 51.6106C104.604 51.9853 104.628 52.3629 104.605 52.7434C103.463 52.7902 102.325 52.7431 101.191 52.6018C101.235 52.4874 101.306 52.3929 101.405 52.3186C101.499 50.7611 101.499 49.2036 101.405 47.646C101.257 47.5407 101.186 47.3991 101.191 47.2213Z" fill="black"/>
<path opacity="0.998" fill-rule="evenodd" clip-rule="evenodd" d="M106.311 47.2212C106.764 47.1533 107.167 47.2476 107.52 47.5044C108.409 48.8494 109.262 50.2182 110.08 51.6106C110.175 50.2891 110.175 48.9675 110.08 47.646C109.982 47.5717 109.91 47.4772 109.867 47.3628C110.198 47.1741 110.53 47.1741 110.862 47.3628C110.818 47.4772 110.747 47.5717 110.649 47.646C110.578 49.3444 110.554 51.0435 110.578 52.7434C110.323 52.7837 110.086 52.7366 109.867 52.6018C108.99 51.233 108.113 49.8644 107.235 48.4956C107.141 49.8171 107.141 51.1387 107.235 52.4602C107.307 52.531 107.378 52.6018 107.449 52.6726C107.07 52.767 106.69 52.767 106.311 52.6726C106.482 52.5447 106.6 52.3796 106.667 52.177C106.761 50.6666 106.761 49.1564 106.667 47.646C106.465 47.5642 106.347 47.4226 106.311 47.2212Z" fill="black"/>
<path opacity="0.999" fill-rule="evenodd" clip-rule="evenodd" d="M112.569 47.2213C113.802 47.2213 115.034 47.2213 116.267 47.2213C116.29 47.555 116.266 47.8853 116.196 48.2124C116.06 48.0596 115.941 47.8945 115.84 47.7168C115.464 47.6465 115.084 47.6228 114.702 47.646C114.678 49.2043 114.702 50.7618 114.773 52.3186C114.872 52.3929 114.943 52.4874 114.987 52.6018C114.568 52.7653 114.141 52.7888 113.707 52.6726C113.778 52.6018 113.849 52.531 113.92 52.4602C113.991 50.8562 114.015 49.2514 113.991 47.646C113.656 47.623 113.324 47.6465 112.996 47.7168C112.825 47.8447 112.706 48.0098 112.64 48.2124C112.569 47.8853 112.546 47.555 112.569 47.2213Z" fill="black"/>
<path opacity="0.998" fill-rule="evenodd" clip-rule="evenodd" d="M122.809 47.0797C123.229 47.1698 123.656 47.2406 124.089 47.292C124.246 47.632 124.269 47.986 124.16 48.354C123.955 47.7582 123.529 47.475 122.88 47.5044C122.117 47.6964 121.833 48.1685 122.027 48.9204C122.663 49.3668 123.35 49.7208 124.089 49.9823C125.037 50.8319 125.037 51.6814 124.089 52.531C123.196 52.7836 122.295 52.8072 121.387 52.6018C121.363 52.2213 121.387 51.8437 121.458 51.469C121.643 52.1044 122.069 52.3875 122.738 52.3186C123.481 52.3851 123.931 52.0548 124.089 51.3274C123.983 51.068 123.84 50.832 123.662 50.6195C123.115 50.3234 122.546 50.0639 121.956 49.8407C121.221 49.3138 121.055 48.6295 121.458 47.7876C121.833 47.3769 122.284 47.1408 122.809 47.0797Z" fill="black"/>
<path opacity="0.996" fill-rule="evenodd" clip-rule="evenodd" d="M134.044 47.2212C134.481 47.1764 134.908 47.2235 135.324 47.3628C135.281 47.4772 135.21 47.5717 135.111 47.646C135.04 49.2028 135.016 50.7604 135.04 52.3186C135.705 52.3421 136.369 52.3185 137.031 52.2478C137.156 52.0232 137.298 51.8108 137.458 51.6106C137.597 51.9768 137.645 52.3544 137.6 52.7434C136.411 52.7902 135.226 52.7431 134.044 52.6018C134.228 51.7529 134.323 50.8799 134.329 49.9823C134.317 49.0382 134.222 48.1178 134.044 47.2212Z" fill="black"/>
<path opacity="0.997" fill-rule="evenodd" clip-rule="evenodd" d="M138.88 47.2212C139.317 47.1764 139.744 47.2235 140.16 47.3628C139.978 48.0692 139.883 48.8009 139.875 49.5575C139.899 50.2419 139.923 50.9263 139.947 51.6106C140.33 52.4033 140.923 52.6157 141.724 52.2478C142.007 52.061 142.173 51.8015 142.222 51.469C142.317 50.1947 142.317 48.9204 142.222 47.646C142.124 47.5717 142.053 47.4772 142.009 47.3628C142.34 47.1741 142.673 47.1741 143.004 47.3628C142.751 48.7526 142.633 50.1685 142.649 51.6106C142.428 52.4775 141.859 52.9022 140.942 52.885C140.32 52.8566 139.799 52.6206 139.378 52.177C139.198 50.677 139.103 49.1666 139.093 47.646C138.946 47.5407 138.874 47.3991 138.88 47.2212Z" fill="black"/>
<path opacity="0.999" fill-rule="evenodd" clip-rule="evenodd" d="M144.569 47.2213C145.849 47.2213 147.129 47.2213 148.409 47.2213C148.453 47.5645 148.405 47.8948 148.267 48.2124C148.163 48.0094 148.021 47.8443 147.84 47.7168C147.511 47.6465 147.18 47.623 146.844 47.646C146.82 49.2043 146.844 50.7618 146.915 52.3186C147.014 52.3929 147.085 52.4874 147.129 52.6018C146.702 52.7905 146.275 52.7905 145.849 52.6018C146.126 50.976 146.221 49.324 146.133 47.646C145.515 47.5153 145.041 47.7041 144.711 48.2124C144.573 47.8948 144.525 47.5645 144.569 47.2213Z" fill="black"/>
<path opacity="0.999" fill-rule="evenodd" clip-rule="evenodd" d="M149.973 47.2212C150.457 47.1759 150.931 47.2231 151.396 47.3628C151.251 47.4838 151.131 47.6253 151.04 47.7876C150.945 49.2507 150.945 50.7139 151.04 52.177C151.107 52.3796 151.225 52.5447 151.396 52.6726C150.922 52.767 150.447 52.767 149.973 52.6726C150.144 52.5447 150.262 52.3796 150.329 52.177C150.424 50.7139 150.424 49.2507 150.329 47.7876C150.175 47.6126 150.056 47.4239 149.973 47.2212Z" fill="black"/>
<path opacity="0.998" fill-rule="evenodd" clip-rule="evenodd" d="M160.782 47.2213C161.126 47.1777 161.459 47.2249 161.778 47.3629C162.627 48.7506 163.504 50.1192 164.409 51.469C164.433 50.8082 164.456 50.1476 164.48 49.4867C164.473 48.7534 164.378 48.0455 164.196 47.3629C164.527 47.1741 164.86 47.1741 165.191 47.3629C165.147 47.4773 165.076 47.5717 164.978 47.646C164.907 49.3444 164.883 51.0436 164.907 52.7434C164.652 52.7837 164.416 52.7366 164.196 52.6018C163.291 51.2046 162.414 49.7886 161.565 48.354C161.54 49.0383 161.518 49.7228 161.493 50.4071C161.501 51.1638 161.596 51.8954 161.778 52.6018C161.446 52.7905 161.114 52.7905 160.782 52.6018C160.826 52.4874 160.897 52.3929 160.996 52.3186C161.091 50.7611 161.091 49.2036 160.996 47.646C160.848 47.5407 160.777 47.3991 160.782 47.2213Z" fill="black"/>
<path opacity="0.992" fill-rule="evenodd" clip-rule="evenodd" d="M103.609 63.9292C103.514 63.9292 103.419 63.9292 103.325 63.9292C103.056 63.8128 102.771 63.6949 102.471 63.5752C102.558 63.4521 102.676 63.3813 102.827 63.3628C103.176 63.5034 103.531 63.5271 103.893 63.4336C104.246 63.1592 104.27 62.8524 103.965 62.5133C103.633 62.2773 103.301 62.0414 102.969 61.8053C102.501 60.9089 102.761 60.3898 103.751 60.2478C103.975 60.3624 104.212 60.4096 104.462 60.3894C104.493 60.5558 104.446 60.6974 104.32 60.8142C103.834 60.5801 103.408 60.6509 103.04 61.0266C103.396 61.5693 103.846 62.0177 104.391 62.3717C104.788 63.2256 104.527 63.7449 103.609 63.9292Z" fill="black"/>
<path opacity="0.995" fill-rule="evenodd" clip-rule="evenodd" d="M108.302 63.9292C108.207 63.9292 108.113 63.9292 108.018 63.9292C107.749 63.8128 107.465 63.6949 107.165 63.5752C107.251 63.4521 107.369 63.3813 107.52 63.3628C107.869 63.5034 108.225 63.5271 108.587 63.4336C108.939 63.1592 108.963 62.8524 108.658 62.5133C108.326 62.2773 107.994 62.0414 107.662 61.8053C107.209 60.957 107.447 60.4378 108.373 60.2478C108.625 60.3516 108.885 60.3989 109.156 60.3894C109.187 60.5558 109.139 60.6974 109.013 60.8142C108.528 60.5801 108.101 60.6509 107.733 61.0266C108.089 61.5693 108.539 62.0177 109.085 62.3717C109.481 63.2256 109.221 63.7449 108.302 63.9292Z" fill="black"/>
<path opacity="0.996" fill-rule="evenodd" clip-rule="evenodd" d="M2.63121 60.3894C2.77285 60.3772 2.89136 60.4245 2.98676 60.531C3.41878 61.6033 3.86915 62.6652 4.33787 63.7168C4.15527 63.8137 3.98936 63.79 3.8401 63.646C3.59694 62.7189 3.00434 62.4357 2.06232 62.7965C1.90454 63.0634 1.78602 63.3466 1.70676 63.646C1.5575 63.79 1.39158 63.8137 1.20898 63.7168C1.70353 62.6144 2.17762 61.5051 2.63121 60.3894ZM2.63121 61.2389C2.75585 61.2204 2.85067 61.2675 2.91565 61.3805C3.01713 61.7078 3.15935 62.0146 3.34232 62.3009C2.96305 62.3953 2.5838 62.3953 2.20454 62.3009C2.36699 61.954 2.50921 61.6 2.63121 61.2389Z" fill="black"/>
<path fill-rule="evenodd" clip-rule="evenodd" d="M6.18677 60.3894C7.04533 60.3428 7.89867 60.3899 8.74677 60.531C8.37891 60.6697 7.99966 60.7169 7.60899 60.6726C7.51417 64.8259 7.41936 64.8259 7.32455 60.6726C6.8697 60.7485 6.49045 60.654 6.18677 60.3894Z" fill="black"/>
<path opacity="0.997" fill-rule="evenodd" clip-rule="evenodd" d="M14.72 60.3894C15.6256 60.3426 16.5265 60.3899 17.4222 60.531C17.0544 60.6697 16.6751 60.7169 16.2844 60.6726C16.2844 61.7109 16.2844 62.7493 16.2844 63.7876C16.1422 63.7876 16 63.7876 15.8577 63.7876C15.8577 62.7493 15.8577 61.7109 15.8577 60.6726C15.4029 60.7484 15.0236 60.654 14.72 60.3894Z" fill="black"/>
<path opacity="0.999" fill-rule="evenodd" clip-rule="evenodd" d="M20.1245 60.3894C20.395 60.7911 20.4899 61.2632 20.409 61.8053C21.1201 61.8053 21.8312 61.8053 22.5423 61.8053C22.5423 61.3334 22.5423 60.8613 22.5423 60.3894C22.6845 60.3894 22.8268 60.3894 22.969 60.3894C22.969 61.5221 22.969 62.6549 22.969 63.7876C22.8268 63.7876 22.6845 63.7876 22.5423 63.7876C22.5423 63.2213 22.5423 62.6549 22.5423 62.0885C21.8312 62.0885 21.1201 62.0885 20.409 62.0885C20.4551 62.6627 20.4077 63.229 20.2668 63.7876C20.1248 62.6589 20.0775 61.5261 20.1245 60.3894Z" fill="black"/>
<path fill-rule="evenodd" clip-rule="evenodd" d="M26.24 60.3894C26.8167 60.3435 27.3856 60.3907 27.9467 60.531C27.4819 60.6707 27.0077 60.7179 26.5244 60.6726C26.5244 61.0502 26.5244 61.4277 26.5244 61.8053C28.2311 61.8998 28.2311 61.9941 26.5244 62.0885C26.5244 62.5604 26.5244 63.0325 26.5244 63.5044C27.0077 63.4591 27.4819 63.5063 27.9467 63.646C27.3856 63.7864 26.8167 63.8335 26.24 63.7876C26.24 62.6549 26.24 61.5221 26.24 60.3894Z" fill="black"/>
<path opacity="0.997" fill-rule="evenodd" clip-rule="evenodd" d="M35.4845 60.3894C35.7563 60.3999 35.9222 60.5415 35.9823 60.8142C36.3461 61.7745 36.749 62.7185 37.1911 63.646C37.12 63.6932 37.0489 63.7405 36.9778 63.7876C36.6952 63.5095 36.4819 63.1792 36.3378 62.7965C35.3957 62.4357 34.8032 62.7189 34.56 63.646C34.4108 63.79 34.2449 63.8137 34.0623 63.7168C34.5568 62.6144 35.0309 61.5052 35.4845 60.3894ZM35.4845 61.239C35.6091 61.2204 35.7039 61.2676 35.7689 61.3806C35.9255 61.6838 36.0677 61.9905 36.1956 62.3009C35.8163 62.3954 35.4371 62.3954 35.0578 62.3009C35.2699 61.9741 35.4121 61.6201 35.4845 61.239Z" fill="black"/>
<path opacity="0.998" fill-rule="evenodd" clip-rule="evenodd" d="M39.8933 60.3894C40.4817 60.3392 41.0506 60.41 41.6 60.6018C42.0986 61.8747 41.672 62.4174 40.32 62.2301C40.7268 62.1338 41.0823 61.945 41.3867 61.6637C41.4478 60.8279 41.0449 60.4974 40.1778 60.6725C40.2249 61.7151 40.1773 62.7535 40.0356 63.7876C39.8936 62.6588 39.8463 61.5261 39.8933 60.3894Z" fill="black"/>
<path opacity="0.999" fill-rule="evenodd" clip-rule="evenodd" d="M44.729 60.3894C45.3057 60.3435 45.8746 60.3907 46.4357 60.531C45.9709 60.6707 45.4967 60.7179 45.0134 60.6726C45.0134 61.0502 45.0134 61.4277 45.0134 61.8053C46.7201 61.8998 46.7201 61.9941 45.0134 62.0885C45.0134 62.5604 45.0134 63.0325 45.0134 63.5044C45.4967 63.4591 45.9709 63.5063 46.4357 63.646C45.8746 63.7864 45.3057 63.8335 44.729 63.7876C44.729 62.6549 44.729 61.5221 44.729 60.3894Z" fill="black"/>
<path opacity="0.993" fill-rule="evenodd" clip-rule="evenodd" d="M48.9955 60.3894C49.1835 60.3653 49.3495 60.4125 49.4933 60.531C49.7304 60.9086 49.9673 61.2861 50.2044 61.6637C50.493 61.3056 50.7536 60.928 50.9866 60.531C51.1288 60.3423 51.271 60.3423 51.4133 60.531C51.1344 61.0631 50.8024 61.5587 50.4177 62.0177C50.7674 62.5487 51.0992 63.0914 51.4133 63.646C51.2496 63.8203 51.0837 63.8203 50.9155 63.646C50.6784 63.2213 50.4415 62.7965 50.2044 62.3717C49.8787 62.8078 49.5705 63.2562 49.2799 63.7168C49.1185 63.8229 48.9763 63.7994 48.8533 63.646C49.2149 63.0909 49.5942 62.5481 49.991 62.0177C49.5667 61.526 49.2349 60.9832 48.9955 60.3894Z" fill="black"/>
<path opacity="0.996" fill-rule="evenodd" clip-rule="evenodd" d="M59.6622 63.9292C59.5673 63.9292 59.4726 63.9292 59.3777 63.9292C57.8828 63.4043 57.4798 62.4132 58.1689 60.9558C59.1516 60.0248 60.0997 60.0719 61.0133 61.0973C61.5505 62.546 61.1001 63.4898 59.6622 63.9292ZM59.0933 60.6726C60.4401 60.6689 60.9854 61.3297 60.7289 62.6549C60.3942 63.3524 59.8491 63.612 59.0933 63.4336C58.3075 63.0203 58.0468 62.3832 58.3111 61.5221C58.5045 61.1649 58.7652 60.8817 59.0933 60.6726Z" fill="black"/>
<path opacity="0.999" fill-rule="evenodd" clip-rule="evenodd" d="M64.2134 60.3894C64.8369 60.3432 65.4531 60.3905 66.0623 60.531C65.5975 60.6707 65.1233 60.7179 64.64 60.6725C64.64 61.0502 64.64 61.4277 64.64 61.8053C66.3467 61.8997 66.3467 61.994 64.64 62.0885C64.64 62.6548 64.64 63.2212 64.64 63.7876C64.4978 63.7876 64.3556 63.7876 64.2134 63.7876C64.2134 62.6548 64.2134 61.5221 64.2134 60.3894Z" fill="black"/>
<path opacity="0.995" fill-rule="evenodd" clip-rule="evenodd" d="M72.7466 60.3894C73.223 60.366 73.6971 60.3897 74.1688 60.4602C74.6861 60.8933 74.7334 61.3889 74.311 61.9469C74.9916 62.4935 75.0389 63.0833 74.4532 63.7168C73.8864 63.7875 73.3175 63.8111 72.7466 63.7876C72.7466 62.6549 72.7466 61.5221 72.7466 60.3894ZM73.1732 60.6726C74.1096 60.6023 74.3467 60.9563 73.8844 61.7345C73.652 61.8045 73.4149 61.828 73.1732 61.8053C73.1732 61.4277 73.1732 61.0502 73.1732 60.6726ZM73.1732 62.0885C73.573 62.1347 73.9523 62.2526 74.311 62.4425C74.5436 63.3669 74.1643 63.7209 73.1732 63.5044C73.1732 63.0325 73.1732 62.5604 73.1732 62.0885Z" fill="black"/>
<path opacity="0.995" fill-rule="evenodd" clip-rule="evenodd" d="M79.2889 63.9292C79.1941 63.9292 79.0994 63.9292 79.0045 63.9292C78.5127 63.8431 78.1571 63.56 77.9378 63.0797C77.8196 62.1793 77.8434 61.2824 78.0089 60.3894C78.0981 61.2933 78.2166 62.19 78.3645 63.0797C78.7284 63.4831 79.1789 63.6012 79.7156 63.4337C79.8864 63.3058 80.005 63.1407 80.0712 62.9381C80.1421 62.0898 80.1659 61.2402 80.1423 60.3894C80.2845 60.3894 80.4267 60.3894 80.5689 60.3894C80.6236 61.3932 80.5524 62.3843 80.3556 63.3629C80.0551 63.679 79.6995 63.8679 79.2889 63.9292Z" fill="black"/>
<path opacity="0.996" fill-rule="evenodd" clip-rule="evenodd" d="M84.5511 63.9292C84.4089 63.9292 84.2667 63.9292 84.1244 63.9292C83.8562 63.8492 83.6191 63.7076 83.4133 63.5044C83.8238 63.4747 84.2505 63.4511 84.6933 63.4336C84.9112 63.3345 85.0534 63.1694 85.12 62.9381C84.7378 62.4395 84.2876 62.0147 83.7689 61.6637C83.3897 60.8619 83.6504 60.39 84.5511 60.2478C84.8226 60.3679 85.1071 60.4152 85.4044 60.3894C85.4044 60.531 85.4044 60.6726 85.4044 60.8142C85.1425 60.7826 84.8818 60.7353 84.6222 60.6726C83.9999 60.7278 83.8576 61.011 84.1956 61.5221C84.6242 61.808 85.0034 62.1384 85.3333 62.5133C85.608 63.3154 85.3473 63.7875 84.5511 63.9292Z" fill="black"/>
<path opacity="0.99" fill-rule="evenodd" clip-rule="evenodd" d="M88.3911 60.3894C88.5333 60.3894 88.6756 60.3894 88.8178 60.3894C88.8178 61.5221 88.8178 62.6549 88.8178 63.7876C88.6756 63.7876 88.5333 63.7876 88.3911 63.7876C88.3911 62.6549 88.3911 61.5221 88.3911 60.3894Z" fill="black"/>
<path opacity="0.998" fill-rule="evenodd" clip-rule="evenodd" d="M92.0889 60.3894C92.4041 60.4889 92.6647 60.6777 92.8711 60.9558C93.44 61.6166 94.0089 62.2773 94.5778 62.9381C94.6487 62.0898 94.6725 61.2402 94.6489 60.3894C94.7911 60.3894 94.9333 60.3894 95.0756 60.3894C95.0756 61.5221 95.0756 62.6549 95.0756 63.7876C94.8068 63.8164 94.5934 63.7221 94.4356 63.5044C93.7378 62.7281 93.0742 61.9258 92.4444 61.0974C92.4204 61.9978 92.3493 62.8946 92.2311 63.7876C92.0892 62.6589 92.0418 61.5261 92.0889 60.3894Z" fill="black"/>
<path opacity="0.998" fill-rule="evenodd" clip-rule="evenodd" d="M98.2043 60.3894C98.7811 60.3435 99.3499 60.3907 99.911 60.531C99.4946 60.6703 99.0679 60.7175 98.631 60.6726C98.631 61.0502 98.631 61.4277 98.631 61.8053C100.148 61.8998 100.148 61.9941 98.631 62.0885C98.631 62.5604 98.631 63.0325 98.631 63.5044C99.1143 63.4591 99.5885 63.5063 100.053 63.646C99.4441 63.7865 98.8278 63.8338 98.2043 63.7876C98.2043 62.6549 98.2043 61.5221 98.2043 60.3894Z" fill="black"/>
<path opacity="0.995" fill-rule="evenodd" clip-rule="evenodd" d="M116.267 60.3894C116.408 60.3772 116.527 60.4245 116.622 60.531C116.941 61.3076 117.297 62.0627 117.689 62.7965C118.066 62.0457 118.445 61.2905 118.827 60.531C118.898 60.3864 118.993 60.3628 119.111 60.4602C119.339 61.5587 119.528 62.6678 119.68 63.7876C119.538 63.7876 119.396 63.7876 119.253 63.7876C119.168 62.9347 119.05 62.0851 118.898 61.2389C118.562 62.0773 118.159 62.8797 117.689 63.646C117.252 62.9182 116.849 62.1631 116.48 61.3805C116.361 62.1844 116.243 62.9868 116.124 63.7876C115.957 63.8186 115.815 63.7715 115.698 63.646C115.933 62.5691 116.123 61.4835 116.267 60.3894Z" fill="black"/>
<path opacity="0.997" fill-rule="evenodd" clip-rule="evenodd" d="M123.378 60.3894C123.52 60.3894 123.662 60.3894 123.805 60.3894C124.189 61.4863 124.616 62.5718 125.085 63.646C124.942 63.8348 124.8 63.8348 124.658 63.646C124.556 63.3188 124.414 63.012 124.231 62.7257C123.759 62.6552 123.285 62.6315 122.809 62.6549C122.769 63.1118 122.58 63.4893 122.24 63.7876C122.193 63.7168 122.145 63.646 122.098 63.5752C122.567 62.5269 122.994 61.4649 123.378 60.3894ZM123.52 61.0974C123.734 61.4478 123.924 61.8254 124.089 62.2301C123.77 62.368 123.438 62.4153 123.093 62.3717C123.195 61.9336 123.337 61.5088 123.52 61.0974Z" fill="black"/>
<path opacity="0.997" fill-rule="evenodd" clip-rule="evenodd" d="M127.787 60.3894C127.954 60.3583 128.096 60.4055 128.213 60.5309C128.874 61.3542 129.561 62.1564 130.276 62.938C130.346 62.0897 130.37 61.2402 130.347 60.3894C130.489 60.3894 130.631 60.3894 130.773 60.3894C130.82 61.5261 130.773 62.6588 130.631 63.7876C129.827 62.9629 129.044 62.1134 128.284 61.2389C128.213 62.0872 128.19 62.9368 128.213 63.7876C128.071 63.7876 127.929 63.7876 127.787 63.7876C127.787 62.6548 127.787 61.5221 127.787 60.3894Z" fill="black"/>
<path opacity="0.997" fill-rule="evenodd" clip-rule="evenodd" d="M134.756 60.3894C134.923 60.3583 135.065 60.4055 135.182 60.5309C135.643 61.6012 136.117 62.6632 136.604 63.7168C136.422 63.8136 136.256 63.79 136.107 63.646C135.974 63.3686 135.856 63.0854 135.751 62.7964C135.284 62.6326 134.81 62.609 134.329 62.7256C134.201 63.036 134.059 63.3427 133.902 63.646C133.76 63.8347 133.618 63.8347 133.476 63.646C133.944 62.5717 134.371 61.4863 134.756 60.3894ZM134.898 61.0973C135.197 61.4594 135.387 61.8841 135.467 62.3717C135.122 62.4153 134.79 62.368 134.471 62.2301C134.67 61.8711 134.812 61.4935 134.898 61.0973Z" fill="black"/>
<path opacity="0.994" fill-rule="evenodd" clip-rule="evenodd" d="M141.013 63.9292C140.871 63.9292 140.729 63.9292 140.587 63.9292C139.148 63.4862 138.697 62.5422 139.236 61.0974C140.019 60.2278 140.896 60.0862 141.867 60.6726C141.362 60.6894 140.841 60.7129 140.302 60.7434C139.516 61.1567 139.256 61.7938 139.52 62.6549C139.973 63.4671 140.637 63.7029 141.511 63.3628C141.582 62.9406 141.606 62.5158 141.582 62.0885C141.724 62.0885 141.867 62.0885 142.009 62.0885C142.055 62.6161 142.007 63.1353 141.867 63.646C141.56 63.7239 141.275 63.8183 141.013 63.9292Z" fill="black"/>
<path opacity="0.998" fill-rule="evenodd" clip-rule="evenodd" d="M145.138 60.3894C145.714 60.3435 146.283 60.3907 146.844 60.531C146.428 60.6703 146.001 60.7175 145.564 60.6726C145.564 61.0502 145.564 61.4277 145.564 61.8053C147.082 61.8998 147.082 61.9941 145.564 62.0885C145.564 62.5604 145.564 63.0325 145.564 63.5044C146.001 63.4596 146.428 63.5067 146.844 63.646C146.283 63.7864 145.714 63.8335 145.138 63.7876C145.138 62.6549 145.138 61.5221 145.138 60.3894Z" fill="black"/>
<path opacity="0.993" fill-rule="evenodd" clip-rule="evenodd" d="M149.973 60.3894C150.116 60.3894 150.258 60.3894 150.4 60.3894C150.613 61.2399 150.946 62.0423 151.396 62.7964C151.773 62.0457 152.152 61.2904 152.533 60.5309C152.65 60.4055 152.792 60.3583 152.96 60.3894C153.05 61.529 153.192 62.6618 153.387 63.7876C153.245 63.7876 153.102 63.7876 152.96 63.7876C152.902 62.9307 152.782 62.0811 152.605 61.2389C152.276 62.0808 151.874 62.8831 151.396 63.646C150.982 62.9654 150.603 62.2574 150.258 61.5221C150.063 62.268 149.921 63.0233 149.831 63.7876C149.682 63.8087 149.54 63.7852 149.405 63.7168C149.662 62.6237 149.853 61.5146 149.973 60.3894Z" fill="black"/>
<path opacity="0.963" fill-rule="evenodd" clip-rule="evenodd" d="M156.231 60.3894C156.807 60.3435 157.376 60.3907 157.938 60.531C157.521 60.6703 157.094 60.7175 156.658 60.6726C156.658 61.0502 156.658 61.4277 156.658 61.8053C158.175 61.8998 158.175 61.9941 156.658 62.0885C156.658 62.5604 156.658 63.0325 156.658 63.5044C157.141 63.4591 157.615 63.5063 158.08 63.646C157.471 63.7865 156.854 63.8338 156.231 63.7876C156.231 62.6549 156.231 61.5221 156.231 60.3894Z" fill="black"/>
<path opacity="0.994" fill-rule="evenodd" clip-rule="evenodd" d="M160.924 60.3894C161.335 60.5851 161.691 60.8683 161.991 61.239C162.465 61.8053 162.94 62.3717 163.413 62.9381C163.484 62.0898 163.508 61.2402 163.484 60.3894C163.627 60.3894 163.769 60.3894 163.911 60.3894C163.958 61.5261 163.911 62.6589 163.769 63.7876C162.955 62.9708 162.173 62.1212 161.422 61.239C161.351 62.0872 161.327 62.9368 161.351 63.7876C161.209 63.7876 161.067 63.7876 160.924 63.7876C160.924 62.6549 160.924 61.5221 160.924 60.3894Z" fill="black"/>
<path fill-rule="evenodd" clip-rule="evenodd" d="M166.613 60.3894C167.472 60.3428 168.326 60.3899 169.173 60.531C168.855 60.6689 168.522 60.7162 168.178 60.6726C168.178 61.7109 168.178 62.7493 168.178 63.7876C168.036 63.7876 167.893 63.7876 167.751 63.7876C167.751 62.7493 167.751 61.7109 167.751 60.6726C167.296 60.7485 166.918 60.654 166.613 60.3894Z" fill="black"/>
</g>
<defs>
<clipPath id="clip0_165_963">
<rect width="170.667" height="64" fill="white"/>
</clipPath>
</defs>
</svg>
